<svg width="400" height="400" viewBox="0 0 400 400" fill="none" xmlns="http://www.w3.org/2000/svg">
<rect width="400" height="400" fill="#34E0A1"/>
<path d="M200 400C310.457 400 400 310.457 400 200C400 89.543 310.457 0 200 0C89.543 0 0 89.543 0 200C0 310.457 89.543 400 200 400Z" fill="#34E0A1"/>
<path d="M323.53 160.983L347.664 134.726H294.145C267.352 116.424 234.994 105.765 199.999 105.765C165.049 105.765 132.782 116.447 106.033 134.726H52.3793L76.5134 160.983C61.7203 174.48 52.4465 193.922 52.4465 215.508C52.4465 256.246 85.4749 289.274 126.212 289.274C145.564 289.274 163.195 281.81 176.358 269.609L200 295.352L223.642 269.631C236.805 281.833 254.413 289.274 273.765 289.274C314.503 289.274 347.575 256.246 347.575 215.508C347.597 193.899 338.324 174.458 323.53 160.983ZM126.234 265.43C98.6584 265.43 76.3127 243.084 76.3127 215.508C76.3127 187.933 98.659 165.586 126.234 165.586C153.809 165.586 176.156 187.933 176.156 215.508C176.156 243.084 153.809 265.43 126.234 265.43ZM200.022 214.056C200.022 181.206 176.134 153.005 144.603 140.961C161.653 133.832 180.357 129.877 199.999 129.877C219.642 129.877 238.368 133.832 255.418 140.961C223.91 153.028 200.022 181.207 200.022 214.056ZM273.788 265.43C246.212 265.43 223.866 243.084 223.866 215.508C223.866 187.933 246.212 165.586 273.788 165.586C301.363 165.586 323.709 187.933 323.709 215.508C323.709 243.084 301.363 265.43 273.788 265.43ZM273.788 189.318C259.329 189.318 247.62 201.028 247.62 215.486C247.62 229.944 259.329 241.653 273.788 241.653C288.245 241.653 299.955 229.944 299.955 215.486C299.955 201.05 288.245 189.318 273.788 189.318ZM152.402 215.508C152.402 229.966 140.692 241.676 126.234 241.676C111.776 241.676 100.067 229.966 100.067 215.508C100.067 201.05 111.776 189.34 126.234 189.34C140.692 189.318 152.402 201.05 152.402 215.508Z" fill="black"/>
</svg>
