<svg width="400" height="400" viewBox="0 0 400 400" fill="none" xmlns="http://www.w3.org/2000/svg">
<rect width="400" height="400" fill="white"/>
<path d="M119.807 86C106.777 86 102 90.8022 102 103.769V260.413C102 261.895 102.078 263.257 102.192 264.52C102.526 267.364 102.526 270.138 105.185 273.238C105.44 273.607 108.113 275.564 108.113 275.564C109.556 276.267 110.551 276.784 112.179 277.444L191.189 310.471C195.262 312.322 197.011 313.103 199.968 312.989H200.004C202.996 313.103 204.745 312.329 208.818 310.471L287.785 277.444C289.456 276.784 290.408 276.259 291.887 275.564C291.887 275.564 294.56 273.529 294.815 273.238C297.481 270.138 297.481 267.364 297.808 264.52C297.922 263.264 298 261.902 298 260.455V103.776C298 90.8093 293.188 86.0071 280.193 86.0071L119.807 86ZM246.393 115.402H252.826C263.567 115.402 268.827 120.616 268.827 131.483V149.252H255.797V132.178C255.797 128.709 254.205 127.121 250.829 127.121H248.611C245.135 127.121 243.543 128.709 243.543 132.178V187.145C243.543 190.614 245.135 192.203 248.611 192.203H251.092C254.418 192.203 256.011 190.614 256.011 187.145V167.489H269.04V187.776C269.04 198.594 263.716 203.921 252.94 203.921H246.393C235.581 203.921 230.278 198.558 230.278 187.776V131.575C230.278 120.758 235.574 115.395 246.393 115.395V115.402ZM130.874 116.154H160.381V128.234H144.124V152.834H159.791V164.886H144.124V191.11H160.609V203.197H130.874V116.154ZM167.042 116.154H187.855C198.625 116.154 203.956 121.51 203.956 132.327V155.459C203.956 166.276 198.617 171.603 187.855 171.603H180.342V203.19H167.042V116.154ZM209.955 116.154H223.205V203.197H209.955V116.154ZM180.299 127.858V159.92H185.78C189.113 159.92 190.706 158.303 190.706 154.82V132.951C190.706 129.483 189.113 127.851 185.78 127.851L180.299 127.858ZM143.755 223.875H145.717L146.165 223.953H146.875L147.245 224.066H147.615L147.949 224.173L148.318 224.251L148.61 224.329L149.271 224.478L149.648 224.584L149.904 224.662L150.195 224.775L150.565 224.889L150.821 224.995L151.197 225.144L151.531 225.293L151.823 225.471L152.157 225.62L152.413 225.797L152.79 225.988L153.081 226.166L153.372 226.315L153.664 226.535L153.97 226.726L154.225 226.946L155.114 227.62L154.887 227.911L154.631 228.166L154.403 228.429L154.147 228.719L153.97 228.975L153.742 229.237L153.486 229.493L153.259 229.783L153.081 230.039L152.818 230.344L152.598 230.599L152.342 230.89L152.114 231.152L151.937 231.443L151.674 231.699L151.453 232.004L151.197 232.259L150.97 232.514L150.714 232.337L150.422 232.075L150.117 231.897L149.569 231.528L149.235 231.337L148.93 231.16L148.596 230.968L148.34 230.819L148.048 230.677L147.451 230.45L147.081 230.386L146.79 230.308L146.456 230.23L146.079 230.152L145.71 230.117H145.34L144.906 230.039H144.195L143.826 230.074H143.456L143.087 230.188L142.795 230.266L142.461 230.379L142.127 230.443L141.821 230.592L141.452 230.741L140.94 231.11L140.634 231.287L140.378 231.514L140.122 231.692L139.859 231.919L139.682 232.174L139.376 232.429L139.006 232.947L138.829 233.238L138.679 233.571L138.502 233.834L138.31 234.167L138.196 234.501L138.054 234.791L137.94 235.16L137.905 235.529L137.798 235.87L137.72 236.238V236.607L137.684 236.976V237.827L137.72 238.196V238.487L137.755 238.856L137.819 239.189L137.933 239.48L137.969 239.856L138.082 240.147L138.189 240.402L138.338 240.771L138.53 241.14L138.672 241.402L139.042 241.991L139.269 242.282L139.447 242.544L139.753 242.764L139.93 243.02L140.186 243.247L140.783 243.694L141.039 243.835L141.331 244.027L141.672 244.176L142.042 244.318L142.298 244.467L143.037 244.687L143.371 244.722L143.741 244.836L144.11 244.871H145.702L146.15 244.836H146.484L146.861 244.687L147.231 244.651L147.6 244.545L147.892 244.467L148.226 244.318L148.517 244.176L148.851 244.027L149.079 243.878L149.37 243.701V240.409H144.146V235.132H155.953V246.957L155.697 247.134L155.441 247.354L155.178 247.545L154.887 247.765L154.595 247.914L154.339 248.141L153.742 248.51L153.372 248.687L152.782 249.056L152.406 249.205L152.114 249.347L151.78 249.496L151.041 249.787L150.749 249.936L150.074 250.156L149.74 250.234L149.406 250.347L149.036 250.461L148.745 250.525L147.636 250.752L147.295 250.787L146.555 250.865L146.15 250.901L145.781 250.929L145.375 250.964H143.527L143.158 250.901H142.788L142.418 250.822H142.084L141.715 250.709L140.634 250.489L140.343 250.376L140.009 250.34L139.639 250.191L138.964 249.971L138.303 249.68L137.933 249.532L137.677 249.383L137.307 249.241L137.044 249.014L136.675 248.872L136.454 248.68L136.163 248.503L135.566 248.056L135.274 247.865L135.047 247.645L134.756 247.418L134.272 246.942L134.016 246.715L133.796 246.46L133.533 246.198L133.355 245.907L133.128 245.687L132.95 245.382L132.723 245.091L132.545 244.836L132.353 244.545L132.175 244.204L132.026 243.914L131.877 243.58L131.734 243.289L131.443 242.615L131.329 242.36L131.18 242.027L131.102 241.693L131.038 241.402L130.96 241.034L130.846 240.693L130.768 240.324L130.732 240.033L130.668 239.665L130.59 239.005L130.512 238.267V236.309L130.59 235.933V235.565L130.704 235.196V234.827L130.81 234.493L130.924 234.125L131.073 233.465L131.18 233.096L131.294 232.763L131.742 231.762L131.884 231.472L132.033 231.138L132.225 230.798L132.367 230.507L132.559 230.252L132.929 229.656L133.149 229.365L133.376 229.11L133.554 228.819L134.038 228.336L134.258 228.074L134.521 227.819L134.741 227.563L135.047 227.336L135.559 226.889L135.85 226.669L136.156 226.478L136.412 226.258L136.703 226.066L137.009 225.925L137.343 225.733L137.713 225.556L137.969 225.364L138.338 225.222L138.672 225.073L139.006 224.896L139.312 224.818L139.682 224.705L139.973 224.556L140.307 224.492L140.641 224.378L141.011 224.3L141.317 224.187L141.686 224.109H142.056L142.39 224.002H142.76L143.129 223.924H143.463L143.755 223.875ZM257.383 223.953H259.345L259.792 224.031H260.496L260.866 224.137H261.271L261.641 224.251L262.302 224.4L262.671 224.478L263.005 224.541L263.382 224.655L263.716 224.768L264.008 224.846L264.342 224.953L264.711 225.066L265.003 225.215L265.372 225.357L265.714 225.506L266.048 225.698L266.304 225.84L266.638 226.031L266.972 226.173L267.277 226.364L267.612 226.584L267.867 226.776L268.465 227.223L268.756 227.4L268.529 227.691L268.351 227.996L268.13 228.251L267.903 228.542L267.725 228.875L267.533 229.18L267.313 229.436L267.086 229.727L266.908 230.032L266.68 230.323L266.503 230.578L266.275 230.869L266.097 231.209L265.87 231.5L265.65 231.755L265.422 232.046L265.244 232.351L264.953 232.124L264.612 231.947L264.356 231.755L264.064 231.578L263.73 231.429L263.425 231.238L263.091 231.096L262.835 230.947L262.465 230.805L262.202 230.656L261.911 230.542L261.25 230.323L260.51 230.096L259.401 229.876L259.032 229.84L258.356 229.762H257.582L257.176 229.84L256.807 229.918L256.473 229.996L256.181 230.138L255.918 230.287L255.627 230.542L255.406 230.876L255.257 231.216V232.096L255.449 232.5L255.591 232.727L255.819 232.947L256.188 233.139L256.48 233.316L256.814 233.465L257.184 233.607L257.667 233.72L257.923 233.834L258.228 233.912L258.598 233.99L258.89 234.096L259.224 234.174L259.629 234.288L259.998 234.401L260.404 234.508L260.809 234.586L261.143 234.699L261.548 234.806L261.918 234.884L262.252 234.962L263.368 235.295L263.659 235.409L264.029 235.522L264.363 235.664L264.733 235.855L265.472 236.146L265.806 236.338L266.403 236.707L266.951 237.111L267.292 237.331L267.548 237.586L267.803 237.891L268.067 238.147L268.244 238.402L268.507 238.771L268.685 239.033L268.834 239.402L268.976 239.622L269.09 239.991L269.204 240.296L269.282 240.629L269.424 241.367L269.46 241.736L269.495 242.069V242.956L269.46 243.36L269.382 244.098L269.303 244.467L269.197 244.8L269.119 245.169L269.005 245.538L268.898 245.871L268.749 246.134L268.6 246.467L268.422 246.758L268.194 247.02L267.825 247.609L267.377 248.127L267.121 248.304L266.83 248.567L266.602 248.787L266.311 249.007L266.019 249.156L265.728 249.383L265.387 249.56L264.726 249.893L264.356 250.042L264.022 250.184L263.652 250.298L263.318 250.411L263.012 250.489L262.273 250.631L262.017 250.709L261.648 250.787H261.278L260.944 250.865H260.574L260.205 250.943H257.567L256.458 250.83L256.089 250.752L255.755 250.716L255.015 250.574L254.61 250.496L254.276 250.418L253.907 250.305L253.53 250.227L253.196 250.12L252.826 250.007L252.456 249.858L252.165 249.751L251.795 249.638L251.426 249.489L251.163 249.347L250.793 249.234L250.502 249.042L250.132 248.9L249.841 248.709L249.578 248.531L249.208 248.34L248.952 248.198L248.661 247.971L248.369 247.794L248.063 247.567L247.808 247.347L247.516 247.12L247.253 246.942L246.962 246.68L247.189 246.389L247.445 246.134L247.665 245.871L247.928 245.58L248.106 245.325L248.334 245.034L248.589 244.772L248.81 244.516L249.073 244.226L249.251 243.963L249.514 243.708L249.734 243.417L249.961 243.155L250.217 242.864L250.395 242.608L250.658 242.346L250.914 242.055L251.17 242.282L251.511 242.502L251.767 242.722L252.137 242.913L252.392 243.105L252.727 243.325L253.032 243.516L253.366 243.658L253.622 243.85L253.956 243.956L254.326 244.105L254.632 244.254L254.966 244.36L255.257 244.509L255.627 244.623L255.961 244.729L256.331 244.843L256.7 244.878L257.041 244.992L257.411 245.027H257.816L258.15 245.134H260.148L260.482 245.07L260.851 244.992L261.107 244.956L261.413 244.843L261.669 244.701L262.003 244.474L262.195 244.219L262.337 243.928L262.451 243.587V242.736L262.302 242.403L262.124 242.112L261.896 241.892L261.562 241.665L261.306 241.559L260.972 241.41L260.603 241.261L260.198 241.083L259.934 241.005L259.643 240.927L259.273 240.814L259.018 240.75L258.648 240.636L258.278 240.601L257.901 240.452L257.532 240.416L257.127 240.31L256.793 240.232L256.423 240.119L256.053 240.041L255.684 239.934L255.35 239.821L254.98 239.743L254.688 239.629L254.013 239.409L253.644 239.26L253.274 239.154L252.535 238.849L252.201 238.671L251.831 238.48L251.575 238.303L251.234 238.111L250.978 237.934L250.644 237.742L250.16 237.26L249.905 237.04L249.457 236.522L249.265 236.267L249.123 236.011L248.895 235.671L248.789 235.416L248.447 234.529L248.383 234.16L248.305 233.827V233.493L248.227 233.124V231.614L248.305 230.876L248.383 230.571L248.447 230.237L248.561 229.947L248.639 229.578L248.789 229.322L248.931 228.946L249.08 228.656L249.222 228.287L249.414 228.031L249.67 227.741L249.862 227.436L250.153 227.18L250.374 226.925L250.601 226.62L250.935 226.364L251.163 226.173L251.454 225.953L252.044 225.584L252.378 225.393L253.054 225.059L253.345 224.953L253.679 224.839L254.049 224.69L254.418 224.584L254.681 224.506L255.015 224.428L255.307 224.35L255.641 224.272L256.011 224.194L256.75 224.13L257.091 224.095L257.383 223.953ZM169.821 224.208H176.524L176.83 224.882L176.972 225.173L177.086 225.542L177.235 225.875L177.342 226.166L177.534 226.499L177.754 227.173L177.946 227.506L178.238 228.166L178.316 228.457L178.906 229.791L179.02 230.124L179.169 230.429L179.347 230.762L179.425 231.096L179.617 231.465L179.681 231.798L180.022 232.458L180.164 232.72L180.313 233.089L180.427 233.458L180.534 233.713L180.726 234.082L180.839 234.387L180.981 234.756L181.095 235.011L181.244 235.38L181.579 236.04L181.685 236.373L181.763 236.714L181.913 237.047L182.09 237.338L182.24 237.707L182.389 238.04L182.496 238.331L182.801 239.005L182.908 239.338L183.057 239.672L183.171 240.005L183.313 240.296L183.505 240.636L183.647 240.97L183.796 241.261L183.875 241.629L184.166 242.289L184.315 242.594L184.422 242.928L184.728 243.587L184.905 243.956L184.983 244.247L185.175 244.623L185.239 244.878L185.389 245.247L185.581 245.616L185.723 245.871L185.837 246.24L185.986 246.545L186.092 246.914L186.284 247.169L186.505 247.907L186.654 248.17L186.796 248.538L186.988 248.829L187.137 249.198L187.201 249.532L187.315 249.822L187.464 250.156L187.642 250.461H180.242L180.064 250.156L179.951 249.822L179.801 249.489L179.659 249.12L179.581 248.829L179.275 248.17L179.169 247.865L178.877 247.205L178.764 246.914L178.614 246.545L178.394 245.871L178.245 245.58H167.952L167.81 245.914L167.696 246.219L167.547 246.588L167.404 246.921L167.326 247.212L167.177 247.581L167.035 247.872L166.921 248.205L166.772 248.51L166.63 248.879L166.516 249.134L166.367 249.503L166.26 249.872L166.111 250.134L165.997 250.503H158.668L158.775 250.163L159.08 249.503L159.187 249.134L159.301 248.843L159.493 248.51L159.635 248.177L159.784 247.872L159.862 247.538L160.005 247.169L160.196 246.879L160.339 246.545L160.566 245.871L160.9 245.212L161.014 244.878L161.156 244.587L161.27 244.247L161.718 243.254L161.867 242.885L161.974 242.594L162.087 242.261L162.279 241.956L162.421 241.587L162.535 241.253L162.649 240.963L162.791 240.594L162.983 240.331L163.097 239.962L163.239 239.672L163.353 239.338L163.502 238.969L163.68 238.679L163.793 238.31L163.936 238.047L164.049 237.678L164.199 237.31L164.341 237.054L164.49 236.685L164.604 236.38L164.746 236.011L164.86 235.756L165.052 235.387L165.194 235.018L165.343 234.728L165.421 234.394L165.563 234.054L165.755 233.72L165.897 233.429L165.976 233.061L166.125 232.727L166.274 232.422L166.566 231.762L166.672 231.472L166.978 230.734L167.12 230.472L167.269 230.103L167.383 229.812L167.49 229.443L167.639 229.11L167.831 228.819L167.973 228.45L168.087 228.187L168.201 227.819L168.343 227.528L168.535 227.194L168.648 226.825L168.755 226.52L168.904 226.152L169.046 225.896L169.238 225.527L169.352 225.159L169.459 224.903L169.608 224.534L169.821 224.208ZM190.635 224.4H197.963L198.191 224.69L198.561 225.286L198.738 225.62L198.93 225.875L199.108 226.208L199.3 226.499L199.478 226.84L199.669 227.131L199.847 227.386L200.039 227.719L200.217 228.024L200.48 228.315L200.586 228.606L200.814 228.939L200.992 229.244L201.219 229.5L201.368 229.833L201.546 230.124L201.774 230.429L201.88 230.72L202.143 231.053L202.691 231.94L202.84 232.231L203.06 232.521L203.252 232.812L203.43 233.153L203.991 234.032L204.169 234.373L204.361 234.664L204.581 234.373L204.731 233.997L204.951 233.742L205.143 233.408L205.321 233.153L205.47 232.784L205.726 232.521L205.918 232.188L206.067 231.933L206.245 231.628L206.472 231.294L206.65 231.039L206.842 230.67L207.02 230.415L207.247 230.074L207.389 229.819L207.581 229.45L207.759 229.23L207.951 228.925L208.171 228.556L208.363 228.301L208.505 227.968L208.733 227.705L208.91 227.336L209.102 227.116L209.323 226.825L209.515 226.457L209.692 226.194L209.884 225.861L210.062 225.605L210.254 225.237L210.474 224.974L210.624 224.641L210.815 224.385H218.258V250.766H211.292V235.245L211.114 235.508L210.887 235.877L210.709 236.097L210.481 236.387L210.339 236.756L210.112 237.019L209.934 237.274L209.707 237.643L209.337 238.161L209.117 238.452L208.925 238.82L208.704 239.083L208.512 239.338L208.37 239.707L208.143 239.962L207.965 240.225L207.738 240.594L207.56 240.849L207.332 241.14L207.155 241.473L207.005 241.736L206.785 242.027L206.593 242.36L206.373 242.615L206.145 242.92L206.003 243.211L205.811 243.545L205.591 243.807L205.363 244.098L205.221 244.467L204.958 244.687L204.816 244.978L204.588 245.353L204.411 245.609H204.261L204.041 245.275L203.849 244.97L203.671 244.637L203.48 244.382L203.259 244.048L203.067 243.757L202.847 243.452L202.655 243.162L202.477 242.828L202.285 242.573L202.029 242.232L201.88 241.942L201.66 241.608L201.468 241.353L201.29 241.019L201.063 240.714L200.885 240.346L200.658 240.09L200.48 239.757L200.288 239.452L200.11 239.118L199.883 238.863L199.705 238.53L199.478 238.239L199.335 237.934L199.108 237.643L198.93 237.31L198.703 237.054L198.525 236.714L198.298 236.423L198.155 236.089L197.892 235.834L197.75 235.494L197.523 235.203V250.759H190.677V224.634L190.635 224.4ZM223.504 224.4H244.353V230.351H230.428V234.6H242.938V240.218H230.428V244.722H244.531V250.709H223.539V224.627L223.504 224.4ZM173.077 232.486L172.963 232.819L172.857 233.124L172.707 233.493L172.558 233.827L172.451 234.16L172.146 234.82L172.004 235.189L171.89 235.494L171.776 235.863L171.634 236.118L171.52 236.487L171.371 236.856L171.229 237.118L171.115 237.487L170.973 237.778L170.859 238.147L170.667 238.48L170.589 238.771L170.447 239.14L170.298 239.48L170.184 239.771L170.042 240.14H176.148L176.006 239.771L175.892 239.438L175.6 238.764L175.487 238.43L175.337 238.139L175.231 237.771L175.081 237.437L174.968 237.104L174.826 236.799L174.712 236.465L174.563 236.097L174.456 235.806L174.15 235.146L174.086 234.806L173.937 234.472L173.788 234.103L173.681 233.848L173.375 233.11L173.269 232.777L173.077 232.486ZM162.201 281.885H238.126L199.371 294.631L162.201 281.885Z" fill="black"/>
</svg>
