<svg width="400" height="400" viewBox="0 0 400 400" fill="none" xmlns="http://www.w3.org/2000/svg">
<rect width="400" height="400" fill="#107C10"/>
<path d="M173.83 312.165C145.94 305.042 114.839 285.084 114.839 274.31C114.839 259.886 146.404 219.514 181.005 189.685L200.469 172.905L209.199 178.98C222.912 188.524 266.79 233.934 276.607 248.742C292.534 272.769 291.824 278.126 270.695 293.321C245.212 311.648 203.544 319.754 173.83 312.165ZM101.629 262.535C83.4431 235.848 77.6005 191.903 88.4452 163.374C95.162 145.704 110.994 121.642 119.62 115.995C125.85 111.916 127.044 111.959 135.615 116.571C140.709 119.312 151.342 127.341 159.244 134.412L173.612 147.27L158.226 166.309C127.31 204.566 103.499 252.315 108.105 266.817C110.43 274.135 108.798 273.056 101.629 262.535V262.535ZM294.036 261.706C293.728 239.387 276.247 205.664 244.6 166.336L229.301 147.325L243.018 134.748C250.562 127.831 261.281 119.738 266.839 116.764L276.945 111.356L288.139 122.257C294.296 128.253 303.285 141.161 308.114 150.941C315.681 166.263 317.026 172.217 317.841 193.987C318.933 223.185 314.485 242.036 302.161 260.435L294.183 272.344L294.035 261.706L294.036 261.706ZM187.739 116.552C181.719 112.99 169.074 107.988 159.638 105.437C150.203 102.885 143.039 99.8989 143.718 98.8016C144.396 97.7043 153.683 94.0012 164.355 90.5725C192.288 81.5983 225.349 83.5756 249.981 95.6935C259.568 100.41 264.826 103.641 261.665 102.874C254.626 101.165 223.956 110.449 211.677 118.006C200.9 124.638 201.466 124.672 187.739 116.552V116.552Z" fill="white"/>
</svg>
