<svg width="400" height="400" viewBox="0 0 400 400" fill="none" xmlns="http://www.w3.org/2000/svg">
<rect width="400" height="400" fill="#C4C4C4"/>
<path d="M399.883 0H0.117188C0.0524666 0 0 0.0524666 0 0.117188V399.883C0 399.948 0.0524666 400 0.117188 400H399.883C399.948 400 400 399.948 400 399.883V0.117188C400 0.0524666 399.948 0 399.883 0Z" fill="#FF5A5F"/>
<path d="M200.286 95C181.686 95 173.99 110.347 173.99 110.347C150.901 152.55 130.378 195.393 109.213 240.154C109.213 240.154 92.5381 272.766 118.834 293.868C155.391 322.643 189.383 279.8 200.286 268.929C211.189 258.059 231.071 233.12 231.071 204.985C231.071 204.985 230.429 176.849 200.286 176.849C170.142 176.849 168.859 204.985 168.859 204.985C168.859 231.202 189.383 258.059 200.286 268.929C211.189 280.439 245.822 323.282 283.02 293.868C306.109 275.324 291.358 240.154 291.358 240.154C271.476 196.672 248.387 148.714 227.222 110.347C227.222 110.347 220.809 95 200.286 95Z" stroke="white" stroke-width="16"/>
</svg>
