<svg width="400" height="400" viewBox="0 0 400 400" fill="none" xmlns="http://www.w3.org/2000/svg">
<g clip-path="url(#clip0)">
<rect width="400" height="400" rx="5" fill="white"/>
<path d="M118.72 326.566C129.323 326.566 139.73 321.436 146.052 311.951C156.105 296.872 152.03 276.5 136.952 266.448L111.142 249.243C115.559 248.04 120.202 247.384 125 247.384C154.059 247.384 177.616 270.94 177.616 300.002C177.616 329.063 154.059 352.618 124.999 352.618C96.7165 352.618 73.654 330.302 72.4415 302.316L100.549 321.053C106.143 324.782 112.465 326.566 118.72 326.566ZM333.336 1.90735e-06C370.006 1.90735e-06 520.5 -53.825 400 66.675V333.327C400 370.02 446.5 440 333.336 400H66.6751C-82 449 0.000110626 370.02 0.000110626 333.327V254.019L47.3962 285.616C42.8447 310.294 50.1064 336.722 69.1923 355.808C100.014 386.63 149.985 386.63 180.808 355.808C199.741 336.877 207.038 310.718 202.713 286.212L300 199.108C318.065 196.515 335.475 188.27 349.373 174.372C383.542 140.202 383.542 84.7992 349.373 50.6281C315.201 16.457 259.799 16.457 225.628 50.6281C211.731 64.5258 203.484 81.9351 200.892 100L120.934 221.184C108.494 221.821 96.1774 225.388 85.104 231.883L0.000110626 175.148V66.675C0.000110626 30.0047 -110.5 -21.5 66.6743 1.90735e-06H333.336ZM350 112.5C350 77.982 322.019 50 287.5 50C252.981 50 225 77.982 225 112.5C225 147.018 252.981 175 287.5 175C322.019 175 350 147.018 350 112.5ZM250 112.5C250 91.7891 266.789 75 287.5 75C308.211 75 325 91.7891 325 112.5C325 133.211 308.211 150 287.5 150C266.789 150 250 133.211 250 112.5Z" fill="white"/>
<path d="M142.209 282.084C149.234 282.084 156.129 278.688 160.318 272.41C166.978 262.429 164.278 248.945 154.288 242.292L137.188 230.904C140.115 230.108 143.191 229.673 146.37 229.673C165.623 229.673 181.229 245.265 181.229 264.501C181.229 283.737 165.622 299.327 146.369 299.327C127.631 299.327 112.351 284.557 111.548 266.033L130.17 278.435C133.876 280.903 138.065 282.084 142.209 282.084ZM340.5 -51C364.795 -51 513.835 40.2417 434 120L458 388.5C458 412.787 353.851 479.976 278.876 453.5H82C-16.5022 485.933 -30.1177 306.37 -30.1177 282.084V140.395L94.9546 254.979C91.939 271.313 96.7502 288.806 109.395 301.439C129.816 321.84 162.923 321.84 183.344 301.439C195.888 288.909 200.723 271.594 197.857 255.374L262.313 197.72C274.282 196.004 285.816 190.546 295.024 181.347C317.662 158.73 317.662 122.06 295.024 99.4421C272.384 76.8244 235.679 76.8244 213.039 99.4421C203.832 108.641 198.368 120.164 196.651 132.121L143.676 212.332C135.434 212.754 127.274 215.115 119.937 219.414L-30.1177 88.1899L-19 -21C-19 -45.2719 12.786 -45.2307 130.17 -31L340.5 -51ZM295.44 140.395C295.44 117.547 276.901 99.0263 254.031 99.0263C231.162 99.0263 212.623 117.547 212.623 140.395C212.623 163.242 231.162 181.763 254.031 181.763C276.901 181.763 295.44 163.242 295.44 140.395ZM229.186 140.395C229.186 126.686 240.31 115.574 254.031 115.574C267.753 115.574 278.876 126.686 278.876 140.395C278.876 154.103 267.753 165.216 254.031 165.216C240.31 165.216 229.186 154.103 229.186 140.395Z" fill="black"/>
</g>
<defs>
<clipPath id="clip0">
<rect width="400" height="400" fill="white"/>
</clipPath>
</defs>
</svg>
