<svg width="152" height="205" viewBox="0 0 152 205" fill="none" xmlns="http://www.w3.org/2000/svg">
<path d="M81.6157 0.174561C101.717 1.78853 116.903 11.6558 125.175 28.4924C126.642 31.4636 128.017 34.8566 128.017 35.4619C128.017 35.6086 128.091 35.737 128.164 35.737C128.237 35.737 128.311 35.8837 128.329 36.0488C128.348 36.3972 128.439 36.7457 128.623 37.2042C128.934 38.0662 130.053 42.468 130.292 43.8068C130.347 44.1553 130.438 44.6505 130.493 44.8889C130.53 45.1457 130.622 45.7509 130.677 46.2461C130.732 46.7597 130.823 47.2182 130.86 47.2732C131.007 47.5116 131.3 50.7396 131.374 53.0138C131.392 53.509 131.465 53.8942 131.557 53.8942C131.63 53.8942 131.612 54.0592 131.502 54.261C131.355 54.5178 131.355 54.6278 131.502 54.6278C131.63 54.6278 131.649 54.7378 131.52 54.9763C131.41 55.1597 131.374 55.3614 131.429 55.4164C131.484 55.4715 131.52 62.6059 131.502 71.281L131.484 87.0537L131.961 87.4205C132.217 87.6223 133.226 87.9707 134.216 88.2092C137.133 88.8694 139.095 89.5664 140.892 90.5568C142.892 91.6572 143.625 92.2258 145.294 93.9131C149.072 97.7279 151.42 104.184 151.768 111.667C151.86 113.483 151.842 181.575 151.75 183.464C151.603 186.674 151.237 189.315 150.906 189.755C150.778 189.902 150.778 189.975 150.925 189.975C151.053 189.975 151.09 190.067 150.998 190.214C150.925 190.324 150.851 190.507 150.833 190.617C150.815 190.709 150.631 191.241 150.411 191.754C150.209 192.286 150.099 192.726 150.173 192.726C150.246 192.726 150.209 192.8 150.118 192.873C149.934 193.001 149.439 193.992 149.439 194.193C149.439 194.248 149.329 194.414 149.182 194.579C149.036 194.744 148.962 194.909 149.017 194.964C149.072 195.019 148.907 195.276 148.651 195.551C148.412 195.807 148.192 196.083 148.192 196.119C148.192 196.376 146.651 198.265 145.954 198.87C145.514 199.255 145.331 199.457 145.533 199.31C145.863 199.072 145.881 199.072 145.643 199.365C145.514 199.549 145.331 199.696 145.239 199.696C145.147 199.696 144.927 199.842 144.744 200.007C144.029 200.686 143.515 201.053 142.525 201.585C139.315 203.309 137.628 203.804 132.969 204.391C130.934 204.629 124.514 204.666 75.7283 204.648C18.7624 204.648 18.4506 204.648 14.9476 203.932C10.8943 203.107 7.66637 201.475 5.20872 198.98C2.25589 196.009 0.843658 192.708 0.275101 187.499C0.0550079 185.537 0 165.551 0 141.91C0 126.101 0.0366669 113.061 0.073349 112.932C0.128372 112.786 0.201736 111.777 0.25676 110.695C0.330124 109.594 0.403488 108.641 0.44017 108.567C0.495193 108.494 0.568542 108.072 0.623566 107.632C0.935349 105.009 2.01746 101.359 3.13623 99.1402C3.68645 98.0947 5.09868 95.9122 5.66724 95.2703C6.80435 94.0048 8.58339 92.3358 8.85851 92.2624C9.09694 92.2074 9.53711 91.7122 9.55545 91.4555C9.55545 91.3271 9.6288 91.3821 9.70216 91.5838C9.84889 91.9323 9.84889 91.9323 9.97728 91.5288C10.069 91.272 10.2157 91.1437 10.3624 91.1987C10.5092 91.2537 10.7109 91.162 10.821 91.0153C10.9493 90.8686 11.1694 90.7585 11.2978 90.7585C11.4445 90.7585 11.5546 90.6668 11.5546 90.5751C11.5546 90.4651 11.683 90.3917 11.8297 90.3917C11.9764 90.3917 12.1048 90.3 12.1048 90.2083C12.1048 90.0983 12.2699 90.0249 12.4716 90.0249C12.6734 90.0249 12.8384 89.9332 12.8384 89.8231C12.8384 89.7314 12.9118 89.6948 13.0218 89.7498C13.1135 89.8048 13.2052 89.7681 13.2052 89.6581C13.2052 89.548 13.2786 89.5114 13.3886 89.5664C13.4803 89.6214 13.572 89.6031 13.572 89.493C13.572 89.4013 13.7188 89.3463 13.8838 89.383C14.0672 89.4013 14.434 89.3096 14.7092 89.1812C14.9843 89.0345 15.2777 88.9428 15.3511 88.9428C15.4244 88.9611 15.6445 88.9245 15.8096 88.8694C16.6533 88.5393 16.8 88.5026 17.0751 88.4476C17.2402 88.4109 17.5703 88.3009 17.8087 88.2092C18.0471 88.1175 18.3039 88.0624 18.3589 88.0808C18.4323 88.0808 18.6707 87.9341 18.9091 87.7323C19.1659 87.4939 19.276 87.4755 19.1843 87.6406C19.1109 87.7873 19.2576 87.6773 19.5144 87.4022L19.9912 86.8886V71.3544C20.0096 62.8077 20.0463 55.1597 20.0829 54.3527C20.2113 52.2068 20.3397 50.5745 20.4314 49.9509C20.4865 49.5108 20.9083 46.8514 21.165 45.2741C21.5502 42.9815 21.7153 42.1562 21.8253 42.1562C21.8987 42.1562 21.9353 41.9728 21.917 41.7344C21.8987 41.5143 21.9353 41.2392 22.0087 41.1475C22.1004 41.0374 22.2105 40.7073 22.2471 40.4138C22.4122 39.5702 22.5039 39.1667 22.7057 38.6531C22.8157 38.378 22.8524 38.1213 22.8157 38.0662C22.7607 38.0112 22.8524 37.6627 22.9991 37.2959C23.1642 36.9108 23.2926 36.4339 23.2926 36.2138C23.2926 35.9204 23.3292 35.8837 23.4576 36.0854C23.586 36.2689 23.6594 36.1038 23.7511 35.4986C23.8244 35.0217 23.9712 34.6365 24.0629 34.6365C24.1729 34.6365 24.2096 34.4715 24.1546 34.2697C24.0995 34.068 24.1362 33.9029 24.2279 33.9029C24.3196 33.9029 24.393 33.7745 24.393 33.6278C24.393 33.4811 24.4663 33.3527 24.5764 33.3527C24.6681 33.3527 24.6864 33.2243 24.6314 33.0409C24.5397 32.8392 24.5764 32.7841 24.7415 32.8942C24.9249 33.0042 24.9432 32.9309 24.8515 32.6191C24.7598 32.3073 24.7781 32.2339 24.9432 32.344C25.0899 32.4357 25.145 32.4173 25.0533 32.2889C24.9249 32.0872 25.5668 30.5833 26.8139 28.1256C27.2174 27.3186 27.8227 26.1632 28.1161 25.5579C28.4279 24.9527 28.7397 24.4208 28.8131 24.3658C28.8681 24.3108 29.1065 23.9073 29.3449 23.4671C29.565 23.0269 29.8218 22.5684 29.9135 22.4584C30.4637 21.7981 31.4541 20.3859 31.8393 19.7256C32.0777 19.3038 32.2794 19.0287 32.2794 19.1021C32.2794 19.1754 32.3895 19.1387 32.5362 19.0103C32.6829 18.882 32.7563 18.7169 32.7013 18.6435C32.6646 18.5702 32.8297 18.2951 33.0864 18.0383C33.3615 17.7815 33.5633 17.4697 33.5633 17.3597C33.5633 17.2496 33.6183 17.213 33.6917 17.268C33.7467 17.3414 33.9301 17.2313 34.0585 17.0296C34.2052 16.8278 34.407 16.6994 34.4987 16.7545C34.5904 16.8278 34.6637 16.7178 34.6637 16.5344C34.6637 16.3326 35.0305 15.8191 35.4891 15.3789C35.9292 14.9387 36.2594 14.5169 36.2043 14.4252C36.1493 14.3518 36.2777 14.2785 36.4794 14.2785C36.6812 14.2785 36.8829 14.1134 36.9563 13.9117C37.0113 13.7099 37.1947 13.5448 37.3415 13.5448C37.4882 13.5448 37.5982 13.4165 37.5982 13.2697C37.5982 13.123 37.7266 12.9946 37.8917 12.9946C38.0384 12.9946 38.1118 12.9029 38.0567 12.8112C38.0017 12.7012 38.0751 12.6278 38.2218 12.6278C38.3869 12.6278 38.5153 12.5361 38.5153 12.4261C38.5153 12.3344 38.5703 12.2793 38.6436 12.316C38.7353 12.371 38.9004 12.2977 39.0288 12.151C39.1572 12.0042 39.1939 11.8942 39.1205 11.8942C39.0471 11.8759 39.1939 11.7475 39.469 11.6008C39.7624 11.454 39.9825 11.2523 39.9825 11.1606C39.9825 11.0505 40.1109 10.9772 40.2576 10.9772C40.4043 10.9772 40.5327 10.8855 40.5327 10.7938C40.5327 10.6837 40.6244 10.6104 40.7161 10.6104C40.8262 10.6104 41.1013 10.4086 41.3397 10.1518C41.5781 9.89507 41.8166 9.69333 41.8899 9.69333C42.0183 9.69333 43.1187 8.94136 43.2838 8.75795C43.3388 8.70293 43.6323 8.51953 43.9624 8.35446C44.2742 8.18939 44.641 7.95097 44.7877 7.82259C45.1179 7.5108 45.8698 7.05229 47.4104 6.26364C48.1074 5.91518 48.7493 5.53001 48.8043 5.43831C48.8594 5.3466 48.9694 5.27324 49.0244 5.27324C49.0978 5.27324 49.5013 5.12653 49.9231 4.94312C56.7825 2.0453 62.1196 0.743118 69.5842 0.156219C72.3353 -0.0638733 78.8279 -0.0455322 81.6157 0.174561ZM72.9039 22.44C71.0148 22.6235 70.3362 22.7151 68.5021 23.0086C66.8515 23.2837 63.3117 24.2374 62.7432 24.5676C62.4314 24.7326 61.386 25.1361 61.2943 25.1178C61.1109 25.0444 56.2873 27.8322 55.9388 28.2357C55.8838 28.2907 55.517 28.5658 55.1318 28.8776C54.7283 29.1711 54.2331 29.5745 54.0314 29.7763C53.8113 29.978 53.3895 30.3448 53.096 30.5649C52.7842 30.8034 52.6742 30.9501 52.8209 30.8767C52.9676 30.8034 52.8393 30.9868 52.5275 31.2802C52.0323 31.7204 50.7301 33.2426 49.648 34.6549C49.4646 34.8933 49.1528 35.3885 48.951 35.737C48.7493 36.0854 48.4375 36.6173 48.2358 36.9291C47.8873 37.4793 46.8969 39.24 46.8602 39.4051C46.8419 39.4601 46.6768 39.8269 46.4934 40.2304C46.31 40.6339 46.1633 41.0191 46.1816 41.0924C46.2 41.1841 46.1449 41.2392 46.0716 41.2392C45.9799 41.2392 45.9065 41.3492 45.8882 41.4592C45.8515 41.9911 45.3563 43.0732 45.2096 42.9448C45.1362 42.8531 45.1179 42.8898 45.1912 43.0182C45.2646 43.1466 45.0628 43.9352 44.7694 44.7972C44.4759 45.6409 44.2742 46.3929 44.3292 46.4479C44.3842 46.5029 44.3292 46.668 44.2008 46.833C44.0724 46.9981 44.0174 47.1632 44.0724 47.2365C44.1458 47.2915 44.1091 47.4566 43.9991 47.6033C43.834 47.7868 43.8524 47.8418 44.0358 47.8418C44.2008 47.8601 44.1825 47.9335 43.9441 48.1169C43.7423 48.2636 43.669 48.392 43.7973 48.392C43.9441 48.392 43.9624 48.5204 43.8157 48.8872C43.7056 49.1806 43.5956 49.5658 43.5589 49.7675C43.4122 50.6662 43.0637 53.4907 43.027 53.9859C43.027 54.2793 42.9353 54.5911 42.8253 54.6645C42.6969 54.7562 42.7152 54.8112 42.8253 54.8112C42.9353 54.8112 43.027 54.9763 43.027 55.178C43.027 55.3798 42.9537 55.5448 42.862 55.5448C42.7703 55.5448 42.7886 55.6549 42.8987 55.8016C43.0637 56.0033 43.0637 56.0767 42.8803 56.1684C42.6969 56.2601 42.6969 56.2968 42.862 56.3885C43.2104 56.5352 43.1554 56.8287 42.7703 56.8287C42.5869 56.8287 42.5318 56.8837 42.6602 56.9754C42.9537 57.1588 42.9904 61.047 42.7152 61.047C42.5685 61.047 42.5502 61.1204 42.7152 61.2854C42.862 61.4688 42.9353 65.2286 42.9537 74.2522L43.0087 86.9803L43.6323 87.3472C44.2559 87.714 44.6593 87.714 75.1231 87.7873C97.4253 87.8424 105.99 87.8057 106.082 87.659C106.155 87.5489 106.486 87.4572 106.816 87.4572C108.081 87.4572 108.008 88.5395 108.026 70.8592C108.044 62.0741 108.044 54.8662 108.026 54.8112C108.008 54.7562 107.971 54.2243 107.934 53.6191C107.861 52.4269 107.751 51.4732 107.458 49.7675C107.348 49.1623 107.237 48.4654 107.219 48.2086C107.182 47.9518 107.109 47.6217 107.036 47.4566C106.962 47.2915 106.889 46.9614 106.852 46.7047C106.834 46.4662 106.761 46.1911 106.706 46.0994C106.651 45.9894 106.541 45.5859 106.467 45.1824C106.32 44.4121 105.605 42.2662 105.165 41.2942C105.018 40.9824 104.908 40.6706 104.908 40.5789C104.908 39.9736 101.46 34.0496 100.378 32.8025C99.7178 32.0322 96.765 29.1344 95.9947 28.4924C93.9772 26.7868 88.6951 24.0907 86.696 23.7422C86.5676 23.7239 86.1825 23.6138 85.834 23.4855C84.7702 23.137 80.827 22.5318 78.8279 22.4217C77.7825 22.3483 76.9205 22.2933 76.9021 22.275C76.8288 22.22 74.041 22.33 72.9039 22.44Z" fill="white"/>
</svg>
