<svg width="400" height="400" viewBox="0 0 400 400" fill="none" xmlns="http://www.w3.org/2000/svg">
<rect width="400" height="400" fill="#DD2D7A"/>
<path d="M151 246C165.912 246 178 233.24 178 217.5C178 201.76 165.912 189 151 189C136.088 189 124 201.76 124 217.5C124 233.24 136.088 246 151 246Z" fill="#DD2D7A"/>
<path d="M246 246C260.912 246 273 233.24 273 217.5C273 201.76 260.912 189 246 189C231.088 189 219 201.76 219 217.5C219 233.24 231.088 246 246 246Z" fill="#DD2D7A"/>
<path d="M70 400L330 400C368.66 400 400 368.66 400 330L400 70C400 31.3401 368.66 0 330 0L70 0C31.3401 0 0 31.3401 0 70L0 330C0 368.66 31.3401 400 70 400Z" fill="#DD2D7A"/>
<path d="M259 318H141C125.352 318 110.345 311.784 99.2807 300.719C88.2161 289.655 82 274.648 82 259V141C82 125.352 88.2161 110.345 99.2807 99.2807C110.345 88.2161 125.352 82 141 82H259C274.648 82 289.655 88.2161 300.719 99.2807C311.784 110.345 318 125.352 318 141V259C318 274.648 311.784 289.655 300.719 300.719C289.655 311.784 274.648 318 259 318V318ZM141 105.6C131.615 105.613 122.619 109.347 115.983 115.983C109.347 122.619 105.613 131.615 105.6 141V259C105.613 268.385 109.347 277.381 115.983 284.017C122.619 290.653 131.615 294.387 141 294.4H259C268.385 294.387 277.381 290.653 284.017 284.017C290.653 277.381 294.387 268.385 294.4 259V141C294.387 131.615 290.653 122.619 284.017 115.983C277.381 109.347 268.385 105.613 259 105.6H141Z" fill="white"/>
<path d="M200 267C186.749 267 173.795 263.071 162.777 255.708C151.759 248.346 143.171 237.882 138.1 225.64C133.029 213.397 131.702 199.926 134.287 186.929C136.873 173.932 143.254 161.994 152.624 152.624C161.994 143.254 173.932 136.873 186.929 134.287C199.926 131.702 213.397 133.029 225.64 138.1C237.882 143.171 248.346 151.759 255.708 162.777C263.071 173.795 267 186.749 267 200C266.987 217.766 259.924 234.8 247.362 247.362C234.8 259.924 217.766 266.987 200 267V267ZM200 156.647C191.426 156.647 183.044 159.19 175.914 163.953C168.785 168.717 163.228 175.488 159.947 183.41C156.666 191.331 155.807 200.048 157.48 208.458C159.153 216.867 163.282 224.592 169.345 230.655C175.408 236.718 183.133 240.847 191.542 242.52C199.952 244.193 208.669 243.334 216.59 240.053C224.512 236.772 231.283 231.215 236.047 224.086C240.81 216.956 243.353 208.574 243.353 200C243.34 188.506 238.768 177.487 230.641 169.359C222.513 161.232 211.494 156.66 200 156.647V156.647Z" fill="white"/>
<path d="M267 149C273.627 149 279 143.627 279 137C279 130.373 273.627 125 267 125C260.373 125 255 130.373 255 137C255 143.627 260.373 149 267 149Z" fill="white"/>
</svg>
