<svg width="400" height="400" viewBox="0 0 400 400" fill="none" xmlns="http://www.w3.org/2000/svg">
<g clip-path="url(#clip0)">
<path d="M339.96 -45H63.0396C6.13237 -45 -40 -0.0137711 -40 55.4796V325.52C-40 381.014 6.13237 426 63.0396 426H339.96C396.868 426 443 381.014 443 325.52V55.4796C443 -0.0137711 396.868 -45 339.96 -45Z" fill="#0A93E2"/>
<path fill-rule="evenodd" clip-rule="evenodd" d="M321.68 139.314C313.063 143.133 303.785 145.724 294.067 146.88C303.996 140.924 311.611 131.505 315.22 120.28C305.923 125.781 295.626 129.789 284.679 131.945C275.908 122.594 263.405 116.762 249.572 116.762C223.007 116.762 201.491 138.301 201.491 164.843C201.491 168.608 201.908 172.289 202.732 175.807C162.774 173.794 127.334 154.653 103.625 125.552C99.4749 132.662 97.1129 140.924 97.1129 149.732C97.1129 166.421 105.602 181.145 118.491 189.762C110.61 189.515 103.204 187.345 96.7087 183.736C96.7087 183.947 96.7087 184.14 96.7087 184.351C96.7087 207.639 113.29 227.075 135.282 231.49C131.257 232.593 127.003 233.189 122.623 233.189C119.526 233.189 116.513 232.889 113.568 232.329C119.7 251.433 137.457 265.334 158.503 265.72C142.042 278.624 121.31 286.294 98.775 286.294C94.8843 286.294 91.0519 286.085 87.3047 285.631C108.58 299.271 133.848 307.237 161.004 307.237C249.451 307.237 297.832 233.956 297.832 170.414C297.832 168.33 297.779 166.263 297.694 164.197C307.093 157.419 315.238 148.946 321.68 139.313L321.68 139.314Z" fill="white"/>
</g>
<defs>
<clipPath id="clip0">
<rect width="400" height="400" fill="white"/>
</clipPath>
</defs>
</svg>
