<svg width="1250" height="1132" viewBox="0 0 1250 1132" fill="none" xmlns="http://www.w3.org/2000/svg">
<path d="M641.535 306.058C694.866 309.919 735.157 333.524 757.102 373.803C760.995 380.911 764.644 389.028 764.644 390.476C764.644 390.827 764.839 391.134 765.034 391.134C765.228 391.134 765.423 391.485 765.472 391.88C765.52 392.713 765.764 393.547 766.25 394.644C767.077 396.706 770.046 407.237 770.678 410.439C770.824 411.273 771.067 412.458 771.213 413.028C771.311 413.642 771.554 415.09 771.7 416.275C771.846 417.504 772.089 418.6 772.187 418.732C772.576 419.302 773.354 427.025 773.549 432.465C773.598 433.65 773.792 434.571 774.036 434.571C774.23 434.571 774.182 434.966 773.89 435.449C773.5 436.063 773.5 436.327 773.89 436.327C774.23 436.327 774.279 436.59 773.938 437.16C773.646 437.599 773.549 438.082 773.695 438.213C773.841 438.345 773.938 455.413 773.89 476.166L773.841 513.899L775.106 514.777C775.787 515.26 778.464 516.093 781.091 516.664C788.828 518.243 794.035 519.91 798.803 522.28C804.107 524.912 806.054 526.273 810.482 530.309C820.506 539.435 826.734 554.88 827.659 572.782C827.902 577.125 827.853 740.024 827.61 744.543C827.221 752.221 826.248 758.54 825.372 759.593C825.031 759.944 825.031 760.119 825.42 760.119C825.761 760.119 825.858 760.339 825.615 760.69C825.42 760.953 825.226 761.392 825.177 761.655C825.128 761.874 824.642 763.147 824.058 764.375C823.523 765.648 823.231 766.701 823.425 766.701C823.62 766.701 823.523 766.876 823.279 767.052C822.793 767.359 821.479 769.728 821.479 770.211C821.479 770.342 821.187 770.737 820.798 771.132C820.408 771.527 820.214 771.922 820.36 772.054C820.506 772.185 820.068 772.8 819.387 773.458C818.754 774.072 818.17 774.73 818.17 774.818C818.17 775.432 814.083 779.951 812.234 781.399C811.066 782.321 810.579 782.803 811.114 782.452C811.99 781.882 812.039 781.882 811.406 782.584C811.066 783.023 810.579 783.374 810.336 783.374C810.093 783.374 809.509 783.725 809.022 784.12C807.124 785.743 805.762 786.621 803.134 787.893C794.619 792.017 790.142 793.202 777.782 794.606C772.381 795.176 755.35 795.264 625.916 795.22C474.779 795.22 473.952 795.22 464.658 793.509C453.904 791.535 445.34 787.63 438.819 781.663C430.985 774.555 427.238 766.657 425.73 754.196C425.146 749.501 425 701.69 425 645.134C425 607.312 425.097 576.116 425.195 575.809C425.341 575.458 425.535 573.045 425.681 570.456C425.876 567.823 426.071 565.542 426.168 565.366C426.314 565.191 426.508 564.182 426.654 563.129C427.482 556.854 430.353 548.123 433.321 542.814C434.781 540.313 438.527 535.092 440.036 533.556C443.053 530.529 447.773 526.536 448.503 526.36C449.135 526.229 450.303 525.044 450.352 524.43C450.352 524.123 450.546 524.254 450.741 524.737C451.13 525.571 451.13 525.571 451.471 524.605C451.714 523.991 452.103 523.684 452.493 523.815C452.882 523.947 453.417 523.728 453.709 523.377C454.05 523.026 454.634 522.762 454.974 522.762C455.364 522.762 455.656 522.543 455.656 522.324C455.656 522.06 455.996 521.885 456.385 521.885C456.775 521.885 457.115 521.666 457.115 521.446C457.115 521.183 457.553 521.007 458.089 521.007C458.624 521.007 459.062 520.788 459.062 520.525C459.062 520.305 459.256 520.218 459.548 520.349C459.792 520.481 460.035 520.393 460.035 520.13C460.035 519.867 460.23 519.779 460.522 519.91C460.765 520.042 461.008 519.998 461.008 519.735C461.008 519.516 461.397 519.384 461.835 519.472C462.322 519.516 463.295 519.296 464.025 518.989C464.755 518.638 465.533 518.419 465.728 518.419C465.923 518.463 466.507 518.375 466.945 518.243C469.183 517.453 469.572 517.366 470.302 517.234C470.74 517.146 471.616 516.883 472.249 516.664C472.881 516.444 473.562 516.313 473.708 516.356C473.903 516.356 474.536 516.005 475.168 515.523C475.849 514.952 476.141 514.909 475.898 515.303C475.703 515.654 476.093 515.391 476.774 514.733L478.039 513.505V476.342C478.088 455.895 478.185 437.599 478.282 435.668C478.623 430.535 478.964 426.63 479.207 425.138C479.353 424.085 480.472 417.723 481.153 413.95C482.175 408.465 482.613 406.491 482.905 406.491C483.1 406.491 483.197 406.052 483.148 405.481C483.1 404.955 483.197 404.297 483.392 404.077C483.635 403.814 483.927 403.024 484.024 402.322C484.462 400.304 484.705 399.339 485.241 398.11C485.533 397.452 485.63 396.838 485.533 396.706C485.387 396.575 485.63 395.741 486.019 394.863C486.457 393.942 486.798 392.801 486.798 392.275C486.798 391.573 486.895 391.485 487.236 391.968C487.576 392.406 487.771 392.011 488.014 390.563C488.209 389.423 488.598 388.501 488.841 388.501C489.133 388.501 489.231 388.106 489.085 387.624C488.939 387.141 489.036 386.746 489.279 386.746C489.523 386.746 489.717 386.439 489.717 386.088C489.717 385.737 489.912 385.43 490.204 385.43C490.447 385.43 490.496 385.123 490.35 384.684C490.107 384.201 490.204 384.07 490.642 384.333C491.128 384.596 491.177 384.421 490.934 383.675C490.691 382.929 490.739 382.753 491.177 383.017C491.566 383.236 491.712 383.192 491.469 382.885C491.128 382.402 492.832 378.805 496.14 372.925C497.211 370.995 498.817 368.23 499.595 366.782C500.422 365.335 501.25 364.062 501.444 363.93C501.59 363.799 502.223 362.834 502.855 361.781C503.439 360.728 504.121 359.631 504.364 359.367C505.824 357.788 508.451 354.409 509.473 352.83C510.106 351.821 510.641 351.162 510.641 351.338C510.641 351.513 510.933 351.426 511.322 351.119C511.712 350.811 511.906 350.417 511.76 350.241C511.663 350.066 512.101 349.407 512.782 348.793C513.512 348.179 514.047 347.433 514.047 347.17C514.047 346.906 514.193 346.819 514.388 346.95C514.534 347.126 515.02 346.863 515.361 346.38C515.75 345.897 516.286 345.59 516.529 345.722C516.772 345.897 516.967 345.634 516.967 345.195C516.967 344.713 517.94 343.484 519.156 342.431C520.324 341.378 521.2 340.369 521.054 340.15C520.908 339.974 521.249 339.798 521.784 339.798C522.319 339.798 522.855 339.404 523.049 338.921C523.195 338.438 523.682 338.043 524.071 338.043C524.46 338.043 524.752 337.736 524.752 337.385C524.752 337.034 525.093 336.727 525.531 336.727C525.92 336.727 526.115 336.508 525.969 336.288C525.823 336.025 526.017 335.85 526.407 335.85C526.845 335.85 527.185 335.63 527.185 335.367C527.185 335.148 527.331 335.016 527.526 335.104C527.769 335.235 528.207 335.06 528.548 334.709C528.888 334.358 528.986 334.095 528.791 334.095C528.596 334.051 528.986 333.744 529.716 333.393C530.494 333.042 531.078 332.559 531.078 332.339C531.078 332.076 531.419 331.901 531.808 331.901C532.197 331.901 532.538 331.681 532.538 331.462C532.538 331.199 532.781 331.023 533.024 331.023C533.316 331.023 534.046 330.541 534.679 329.926C535.311 329.312 535.944 328.829 536.139 328.829C536.479 328.829 539.399 327.03 539.837 326.592C539.983 326.46 540.761 326.021 541.637 325.626C542.464 325.232 543.438 324.661 543.827 324.354C544.703 323.608 546.698 322.511 550.785 320.625C552.634 319.791 554.337 318.869 554.483 318.65C554.629 318.431 554.921 318.255 555.067 318.255C555.262 318.255 556.332 317.904 557.452 317.465C575.65 310.533 589.81 307.418 609.615 306.014C616.914 305.487 634.139 305.531 641.535 306.058ZM618.422 359.323C613.41 359.762 611.61 359.982 606.744 360.684C602.364 361.342 592.973 363.623 591.465 364.413C590.637 364.808 587.864 365.773 587.621 365.729C587.134 365.554 574.336 372.223 573.412 373.188C573.266 373.32 572.293 373.978 571.271 374.724C570.2 375.426 568.887 376.391 568.351 376.874C567.767 377.357 566.648 378.234 565.87 378.761C565.042 379.331 564.751 379.682 565.14 379.507C565.529 379.331 565.188 379.77 564.361 380.472C563.047 381.525 559.593 385.167 556.722 388.545C556.235 389.116 555.408 390.3 554.873 391.134C554.337 391.968 553.51 393.24 552.975 393.986C552.05 395.302 549.423 399.514 549.325 399.909C549.277 400.041 548.839 400.918 548.352 401.884C547.866 402.849 547.476 403.77 547.525 403.946C547.574 404.165 547.428 404.297 547.233 404.297C546.99 404.297 546.795 404.56 546.746 404.823C546.649 406.096 545.335 408.684 544.946 408.377C544.751 408.158 544.703 408.246 544.897 408.553C545.092 408.86 544.557 410.747 543.778 412.809C543 414.827 542.464 416.626 542.61 416.758C542.756 416.889 542.61 417.284 542.27 417.679C541.929 418.074 541.783 418.469 541.929 418.644C542.124 418.776 542.026 419.171 541.735 419.522C541.297 419.961 541.345 420.092 541.832 420.092C542.27 420.136 542.221 420.312 541.589 420.75C541.053 421.101 540.859 421.409 541.199 421.409C541.589 421.409 541.637 421.716 541.248 422.593C540.956 423.295 540.664 424.217 540.567 424.699C540.177 426.849 539.253 433.606 539.156 434.791C539.156 435.493 538.912 436.239 538.62 436.414C538.28 436.634 538.328 436.765 538.62 436.765C538.912 436.765 539.156 437.16 539.156 437.643C539.156 438.125 538.961 438.52 538.718 438.52C538.474 438.52 538.523 438.784 538.815 439.135C539.253 439.617 539.253 439.793 538.766 440.012C538.28 440.232 538.28 440.319 538.718 440.539C539.642 440.89 539.496 441.592 538.474 441.592C537.988 441.592 537.842 441.723 538.182 441.943C538.961 442.381 539.058 451.683 538.328 451.683C537.939 451.683 537.89 451.859 538.328 452.254C538.718 452.692 538.912 461.687 538.961 483.274L539.107 513.724L540.761 514.601C542.416 515.479 543.486 515.479 624.31 515.654C683.48 515.786 706.204 515.698 706.447 515.347C706.642 515.084 707.518 514.865 708.394 514.865C711.751 514.865 711.557 517.454 711.605 475.157C711.654 454.14 711.654 436.897 711.605 436.765C711.557 436.634 711.459 435.361 711.362 433.913C711.167 431.061 710.875 428.78 710.097 424.699C709.805 423.251 709.513 421.584 709.464 420.97C709.367 420.356 709.172 419.566 708.978 419.171C708.783 418.776 708.588 417.986 708.491 417.372C708.442 416.802 708.248 416.143 708.102 415.924C707.956 415.661 707.664 414.695 707.469 413.73C707.08 411.887 705.182 406.754 704.014 404.428C703.625 403.683 703.333 402.937 703.333 402.717C703.333 401.269 694.185 387.097 691.314 384.114C689.563 382.271 681.728 375.338 679.685 373.803C674.332 369.722 660.318 363.272 655.014 362.439C654.674 362.395 653.652 362.132 652.727 361.824C649.905 360.991 639.443 359.543 634.139 359.28C631.366 359.104 629.079 358.972 629.03 358.929C628.835 358.797 621.439 359.06 618.422 359.323Z" fill="#30BE68"/>
<path fill-rule="evenodd" clip-rule="evenodd" d="M626 1028C881.156 1028 1088 821.156 1088 566C1088 310.844 881.156 104 626 104C370.844 104 164 310.844 164 566C164 821.156 370.844 1028 626 1028ZM626 957.16C842.032 957.16 1017.16 782.032 1017.16 566C1017.16 349.968 842.032 174.84 626 174.84C409.968 174.84 234.84 349.968 234.84 566C234.84 782.032 409.968 957.16 626 957.16Z" fill="#30BE68"/>
</svg>
