<svg width="400" height="400" viewBox="0 0 400 400" fill="none" xmlns="http://www.w3.org/2000/svg">
<rect width="400" height="400" fill="#273B7D"/>
<path d="M161.912 84C182.507 87.8849 212.653 96.9994 229.069 102.378C270.109 116.573 284.138 134.204 284.138 173.95C284.138 212.798 260.26 227.441 229.815 212.798V140.48C229.815 132.262 228.323 124.343 220.264 122.102C214.145 120.159 210.564 125.837 210.564 134.204V315L161.912 299.461V84ZM219.667 283.473L298.017 255.532C306.971 252.394 308.314 247.911 301.151 245.521C293.838 243.13 280.854 243.877 271.9 247.015L219.667 265.393V236.107L222.801 235.061C222.801 235.061 237.874 229.384 258.917 227.441C280.257 225.05 306.225 227.74 326.521 235.36C349.503 242.682 352.19 253.44 346.369 260.761C340.4 268.232 326.073 273.462 326.073 273.462L219.667 311.563V283.473ZM72.3701 280.484C48.9399 274.209 44.9105 260.014 55.6556 251.796C65.6545 244.325 82.5183 239.096 82.5183 239.096L152.361 214.442V242.532L102.218 260.612C93.2633 263.75 91.9202 268.232 99.0836 270.623C106.247 273.014 119.38 272.416 128.185 269.129L152.361 260.462V285.714L147.586 286.611C123.409 290.495 97.7404 289.151 72.3701 280.484Z" fill="white"/>
</svg>
