<svg width="400" height="400" viewBox="0 0 400 400" fill="none" xmlns="http://www.w3.org/2000/svg">
<g clip-path="url(#clip0)">
<rect width="560" height="400" transform="translate(-80)" fill="#1977F3"/>
<path fill-rule="evenodd" clip-rule="evenodd" d="M330.096 200.048C330.096 128.23 271.866 70 200.048 70C128.23 70 70 128.23 70 200.048C70 264.953 117.55 318.757 179.73 328.524V237.649H146.701V200.048H179.73V171.39C179.73 138.8 199.152 120.786 228.852 120.786C243.08 120.786 257.967 123.328 257.967 123.328V155.333H241.562C225.414 155.333 220.366 165.355 220.366 175.651V200.047H256.43L250.669 237.648H220.365V328.523C282.545 318.774 330.095 264.97 330.095 200.047L330.096 200.048Z" fill="#1977F3"/>
<path fill-rule="evenodd" clip-rule="evenodd" d="M247.968 211.862L253.729 174.261H217.665V149.865C217.665 139.587 222.694 129.547 238.861 129.547H255.266V97.542C255.266 97.542 240.38 95 226.151 95C196.451 95 177.029 112.996 177.029 145.604V174.262H144V211.863H177.029V302.738C183.649 303.779 190.434 304.31 197.347 304.31C204.26 304.31 211.045 303.761 217.665 302.738V211.863H247.969L247.968 211.862Z" fill="#FEFEFE"/>
</g>
<defs>
<clipPath id="clip0">
<rect width="400" height="400" fill="white"/>
</clipPath>
</defs>
</svg>
