<svg width="400" height="400" viewBox="0 0 400 400" fill="none" xmlns="http://www.w3.org/2000/svg">
<rect width="400" height="400" fill="#00AFF0"/>
<path d="M310.566 219.722C310.566 220.035 310.566 220.661 310.253 220.975L309.941 218.782C309.941 219.095 310.253 219.409 310.566 219.722C311.815 213.145 312.44 206.255 312.44 199.364C312.44 184.022 309.316 169.302 303.694 155.517C298.071 142.05 289.949 130.153 279.644 119.817C269.34 109.482 257.47 101.343 244.037 95.7051C230.297 89.7694 215.619 86.9507 200.312 86.9507C193.191 86.9407 186.084 87.5696 179.075 88.8298C179.387 89.143 180.012 89.143 180.324 89.4562L177.825 89.143C178.137 89.143 178.762 88.8298 179.075 88.8298C169.079 83.8187 158.462 81 147.566 81C129.764 81 113.204 87.8902 100.404 100.414C87.8723 112.938 81 129.851 81 147.702C81 158.977 83.8114 170.249 89.4341 179.954C89.4341 179.641 89.4341 179.014 89.7465 178.701L90.0589 181.207C89.7465 180.893 89.7465 180.58 89.4341 179.954C88.1846 186.218 87.8723 192.795 87.8723 199.368C87.8723 214.711 90.996 229.431 96.6187 243.215C102.241 256.682 110.363 268.58 120.668 278.915C130.973 289.25 142.843 297.39 156.275 303.027C170.019 308.978 184.697 311.797 200.007 311.797C206.61 311.792 213.198 311.163 219.683 309.917C219.371 309.604 219.059 309.604 218.434 309.291L220.933 309.604C220.62 309.604 219.996 309.604 219.683 309.917C229.598 315.855 240.93 318.993 252.479 319C270.281 319 286.84 312.11 299.64 299.586C312.128 287.058 319 270.146 319 252.294C319 241.019 315.876 229.748 310.566 219.726V219.722ZM200.312 268.229C160.336 268.229 142.53 248.506 142.53 233.778C142.53 226.262 148.153 220.937 155.65 220.937C172.831 220.937 168.458 245.676 200.275 245.676C216.515 245.676 225.574 236.906 225.574 227.827C225.574 222.503 222.762 216.239 212.142 213.734L176.572 205.009C147.837 197.806 142.843 182.463 142.843 167.743C142.843 137.367 171.265 126.096 197.813 126.096C222.487 126.096 251.222 139.563 251.222 157.725C251.222 165.554 244.662 169.939 236.853 169.939C222.171 169.939 224.983 149.582 195.623 149.582C180.941 149.582 173.136 156.159 173.136 165.551C173.136 174.943 184.694 178.078 194.686 180.271L220.922 186.221C249.656 192.798 257.153 209.394 257.153 225.37C257.153 250.109 238.411 268.274 200.309 268.274L200.312 268.229ZM218.423 309.567C218.735 309.88 219.047 309.88 219.672 310.193C219.985 310.193 220.609 310.193 220.922 309.88L218.423 309.567ZM310.25 220.941C310.25 220.628 310.25 220.001 310.562 219.688C310.25 219.375 310.25 219.062 309.937 218.435L310.25 220.941ZM89.4341 178.709C89.4341 179.022 89.4341 179.648 89.1217 179.961C89.4341 180.274 89.4341 180.588 89.7465 181.214L89.4341 178.709ZM180.012 89.4562C179.699 89.143 179.387 89.143 178.762 88.8298C178.45 88.8298 177.825 89.143 177.513 89.143L180.012 89.4562Z" fill="white"/>
</svg>
