<svg width="400" height="400" viewBox="0 0 400 400" fill="none" xmlns="http://www.w3.org/2000/svg">
<rect width="400" height="400" fill="#FFFC00"/>
<path d="M151 246C165.912 246 178 233.24 178 217.5C178 201.76 165.912 189 151 189C136.088 189 124 201.76 124 217.5C124 233.24 136.088 246 151 246Z" fill="#FFFC00"/>
<path d="M246 246C260.912 246 273 233.24 273 217.5C273 201.76 260.912 189 246 189C231.088 189 219 201.76 219 217.5C219 233.24 231.088 246 246 246Z" fill="#FFFC00"/>
<path d="M317.711 259.494C316.678 256.08 311.734 253.672 311.734 253.672C311.266 253.426 310.848 253.205 310.504 253.033C302.263 249.053 294.957 244.263 288.808 238.833C283.864 234.46 279.633 229.645 276.238 224.535C272.081 218.294 270.138 213.086 269.301 210.261C268.834 208.418 268.908 207.681 269.301 206.723C269.622 205.912 270.581 205.151 271.023 204.782C273.803 202.816 278.28 199.918 281.035 198.149C283.421 196.601 285.463 195.275 286.668 194.439C290.53 191.737 293.186 188.985 294.736 186.012C296.753 182.18 296.999 177.954 295.425 173.802C293.309 168.201 288.07 164.86 281.404 164.86C279.928 164.86 278.403 165.031 276.878 165.351C273.065 166.186 269.449 167.537 266.423 168.717C266.373 168.74 266.317 168.749 266.262 168.743C266.207 168.738 266.154 168.718 266.109 168.685C266.064 168.653 266.028 168.609 266.006 168.559C265.983 168.508 265.975 168.452 265.981 168.397C266.301 160.904 266.67 150.831 265.833 141.275C265.095 132.627 263.3 125.33 260.397 118.967C257.47 112.58 253.657 107.862 250.681 104.448C247.852 101.205 242.858 96.4141 235.331 92.1148C224.754 86.0711 212.7 83 199.516 83C186.356 83 174.327 86.0711 163.725 92.1148C155.755 96.6597 150.664 101.794 148.352 104.448C145.375 107.862 141.562 112.58 138.635 118.967C135.708 125.33 133.937 132.602 133.199 141.275C132.363 150.881 132.707 160.143 133.051 168.397C133.051 168.643 132.83 168.815 132.584 168.717C129.558 167.537 125.942 166.186 122.13 165.351C120.629 165.031 119.104 164.86 117.604 164.86C110.962 164.86 105.723 168.201 103.582 173.802C102.008 177.954 102.254 182.18 104.271 186.012C105.845 188.985 108.477 191.736 112.339 194.439C113.52 195.275 115.586 196.601 117.973 198.149C120.654 199.893 125.008 202.718 127.812 204.659C128.156 204.905 129.337 205.789 129.706 206.723C130.099 207.706 130.173 208.443 129.657 210.408C128.796 213.258 126.852 218.417 122.769 224.535C119.374 229.669 115.144 234.46 110.199 238.833C104.05 244.262 96.744 249.053 88.5036 253.033C88.1101 253.23 87.6428 253.45 87.1506 253.746C87.1506 253.746 82.231 256.251 81.2964 259.494C79.919 264.285 83.5839 268.781 87.2987 271.189C93.3988 275.119 100.827 277.232 105.132 278.387C106.337 278.707 107.42 279.001 108.404 279.296C109.018 279.493 110.568 280.082 111.233 280.942C112.069 282.023 112.167 283.35 112.462 284.848C112.93 287.379 113.987 290.499 117.111 292.661C120.555 295.019 124.909 295.191 130.444 295.412C136.224 295.633 143.407 295.904 151.648 298.631C155.461 299.884 158.929 302.021 162.914 304.478C171.277 309.612 181.682 316 199.442 316C217.227 316 227.706 309.588 236.118 304.429C240.103 301.997 243.522 299.884 247.262 298.655C255.502 295.929 262.684 295.658 268.465 295.437C274 295.216 278.353 295.068 281.797 292.685C285.143 290.376 286.102 286.936 286.545 284.357C286.791 283.079 286.938 281.925 287.676 280.991C288.316 280.18 289.743 279.615 290.407 279.394C291.415 279.075 292.547 278.78 293.801 278.436C298.106 277.282 303.518 275.93 310.085 272.22C318.006 267.725 318.547 262.221 317.711 259.494V259.494Z" fill="white"/>
<path d="M324.099 256.706C322.358 251.953 319.024 249.429 315.249 247.322C314.538 246.906 313.876 246.563 313.337 246.318C312.21 245.73 311.058 245.167 309.905 244.579C298.115 238.331 288.897 230.442 282.524 221.108C280.367 217.948 278.871 215.106 277.817 212.779C277.278 211.211 277.303 210.329 277.695 209.52C277.989 208.908 278.774 208.271 279.215 207.953C281.052 206.737 282.898 205.536 284.755 204.351C287.28 202.71 289.29 201.411 290.565 200.529C295.418 197.148 298.801 193.547 300.909 189.529C303.9 183.87 304.267 177.402 301.963 171.326C298.776 162.898 290.785 157.656 281.127 157.656C279.117 157.656 277.082 157.876 275.072 158.317C274.533 158.44 274.018 158.562 273.504 158.684C273.601 152.952 273.454 146.827 272.94 140.849C271.126 119.78 263.747 108.731 256.05 99.9357C252.839 96.2607 247.25 90.8955 238.866 86.0936C227.174 79.3809 213.936 76 199.498 76C185.109 76 171.872 79.3809 160.179 86.0697C151.746 90.8712 146.157 96.2607 142.971 99.9113C135.274 108.707 127.895 119.755 126.081 140.825C125.567 146.803 125.444 152.927 125.517 158.66C125.003 158.537 124.463 158.415 123.949 158.293C121.96 157.856 119.93 157.634 117.894 157.631C108.236 157.631 100.244 162.874 97.0578 171.302C94.7539 177.377 95.1212 183.845 98.1119 189.504C100.22 193.522 103.627 197.124 108.456 200.505C109.755 201.411 111.741 202.71 114.266 204.326C115.639 205.208 117.624 206.507 119.585 207.805C119.88 208.001 120.934 208.785 121.301 209.52C121.718 210.353 121.718 211.26 121.105 212.925C120.075 215.204 118.58 217.997 116.472 221.084C110.221 230.222 101.274 237.964 89.8752 244.137C83.8206 247.347 77.5454 249.478 74.898 256.681C72.8878 262.12 74.2112 268.318 79.2858 273.536C80.9526 275.325 83.0607 276.917 85.7081 278.387C91.9346 281.817 97.2293 283.508 101.396 284.659C102.132 284.879 103.824 285.418 104.559 286.08C106.422 287.697 106.152 290.147 108.628 293.723C110.123 295.953 111.839 297.472 113.261 298.452C118.433 302.029 124.267 302.249 130.445 302.494C136.009 302.715 142.334 302.959 149.54 305.336C152.531 306.316 155.644 308.227 159.223 310.432C167.852 315.748 179.691 323 199.474 323C219.28 323 231.169 315.699 239.871 310.383C243.45 308.202 246.539 306.292 249.431 305.336C256.638 302.96 262.963 302.714 268.527 302.494C274.704 302.249 280.514 302.029 285.711 298.452C287.875 296.943 289.683 294.977 291.005 292.695C292.771 289.681 292.746 287.55 294.413 286.104C295.099 285.516 296.595 285.002 297.403 284.757C301.595 283.605 306.964 281.915 313.312 278.411C316.132 276.868 318.313 275.178 320.054 273.242L320.127 273.169C324.858 268.024 326.06 262.022 324.099 256.706V256.706ZM306.522 266.138C295.786 272.067 288.652 271.429 283.113 274.982C278.406 278.019 281.176 284.561 277.769 286.913C273.552 289.828 261.124 286.717 245.068 292.008C231.831 296.394 223.374 308.962 199.522 308.962C175.622 308.962 167.41 296.443 153.977 292.008C137.921 286.717 125.469 289.828 121.277 286.913C117.869 284.561 120.64 278.02 115.933 274.982C110.393 271.405 103.26 272.042 92.523 266.138C85.6837 262.365 89.5566 260.037 91.8362 258.935C130.714 240.144 136.891 211.088 137.186 208.908C137.529 206.311 137.897 204.253 135.029 201.583C132.259 199.01 119.929 191.391 116.521 189.014C110.859 185.07 108.383 181.126 110.221 176.275C111.496 172.918 114.634 171.669 117.943 171.669C118.973 171.669 120.027 171.791 121.031 172.012C127.233 173.36 133.264 176.471 136.744 177.304C137.235 177.426 137.651 177.476 138.019 177.476C139.882 177.476 140.519 176.544 140.397 174.413C140.005 167.627 139.024 154.398 140.103 142.025C141.574 125.023 147.064 116.595 153.585 109.123C156.722 105.546 171.431 90.0135 199.547 90.0135C227.737 90.0135 242.372 105.546 245.509 109.123C252.03 116.571 257.521 124.998 258.992 142.025C260.07 154.398 259.139 167.627 258.697 174.413C258.55 176.643 259.237 177.476 261.075 177.476C261.443 177.476 261.884 177.427 262.35 177.304C265.83 176.471 271.861 173.36 278.063 172.012C279.077 171.788 280.112 171.673 281.151 171.669C284.461 171.669 287.598 172.943 288.873 176.275C290.712 181.126 288.211 185.07 282.573 189.014C279.166 191.391 266.835 199.01 264.066 201.583C261.198 204.228 261.565 206.286 261.908 208.908C262.178 211.088 268.38 240.144 307.258 258.935C309.464 260.037 313.362 262.365 306.522 266.138V266.138Z" fill="black"/>
</svg>
