<svg width="400" height="400" viewBox="0 0 400 400" fill="none" xmlns="http://www.w3.org/2000/svg">
<rect width="400" height="400" fill="#0BB4D5"/>
<path d="M210.068 192.932C237.325 165.661 273.074 152.095 308.818 152.131C308.914 152.131 309.008 152.142 309.105 152.142C312.289 159.584 314.228 167.674 314.678 176.175C312.786 176.085 310.88 176.038 308.978 176.038C308.921 176.038 308.874 176.044 308.814 176.044C308.764 176.044 308.714 176.038 308.664 176.038C277.81 176.038 248.818 188.071 227.005 209.881C205.186 231.717 193.168 260.728 193.168 291.583C193.168 291.733 193.168 291.86 193.174 291.997H169.262C169.162 256.164 182.725 220.281 210.068 192.932ZM351.726 238.695C351.907 236.805 352 234.915 352 232.986C352 223.84 349.901 215.186 346.166 207.473C334.309 202.241 321.566 199.617 308.821 199.637C285.226 199.6 261.641 208.535 243.649 226.552C225.594 244.608 216.65 268.324 216.756 291.997H240.762C240.665 274.424 247.217 256.842 260.579 243.483C273.572 230.478 290.556 223.917 307.616 223.673V223.653C308.02 223.633 308.427 223.653 308.821 223.653C309.222 223.653 309.635 223.633 310.033 223.653V223.673C324.847 223.89 339.588 228.872 351.726 238.695ZM112.133 210.635C112.123 210.598 112.123 210.578 112.116 210.532C112.123 210.595 112.133 210.635 112.133 210.635ZM341.491 259.085C332.777 250.351 321.446 245.904 310.029 245.653V245.67C309.629 245.636 309.218 245.653 308.818 245.653C308.424 245.653 308.017 245.636 307.613 245.67V245.653C296.209 245.904 284.872 250.351 276.152 259.085C267.071 268.16 262.632 280.08 262.749 291.997H285.793C287.295 284.284 288.693 280.411 293.082 276.013C297.427 271.676 303.134 269.643 308.814 269.68C314.505 269.643 320.235 271.68 324.56 276.013C326.069 277.513 327.257 279.195 328.221 280.958C334.896 276.06 340.426 269.716 344.491 262.374C343.546 261.239 342.555 260.144 341.491 259.085ZM146.651 291.583C146.651 206.912 211.55 137.41 294.314 130.142C281.438 117.09 263.573 109 243.809 109C207.412 109 177.425 136.385 173.284 171.664C167.106 167.797 159.801 165.54 151.975 165.54C129.794 165.54 109.597 187.741 112.133 210.635C106.149 207.497 99.3376 205.707 92.1155 205.707C68.3 205.707 49 225.022 49 248.858C49 270.574 65.0127 288.531 85.8813 291.549C87.5166 291.843 89.1886 292 90.914 292H146.655C146.651 291.86 146.641 291.733 146.651 291.583ZM112.063 210.081C112.073 210.224 112.103 210.415 112.113 210.528C112.09 210.318 112.073 210.181 112.063 210.081ZM112.063 210.081C112.043 209.921 112.033 209.854 112.063 210.081V210.081Z" fill="white"/>
</svg>
