<svg width="400" height="400" viewBox="0 0 400 400" fill="none" xmlns="http://www.w3.org/2000/svg">
<path d="M205.616 98.1746C225.717 99.7885 240.903 109.656 249.175 126.492C250.642 129.464 252.017 132.857 252.017 133.462C252.017 133.609 252.091 133.737 252.164 133.737C252.237 133.737 252.311 133.884 252.329 134.049C252.348 134.397 252.439 134.746 252.623 135.204C252.934 136.066 254.053 140.468 254.292 141.807C254.347 142.155 254.438 142.65 254.493 142.889C254.53 143.146 254.622 143.751 254.677 144.246C254.732 144.76 254.823 145.218 254.86 145.273C255.007 145.512 255.3 148.74 255.374 151.014C255.392 151.509 255.465 151.894 255.557 151.894C255.63 151.894 255.612 152.059 255.502 152.261C255.355 152.518 255.355 152.628 255.502 152.628C255.63 152.628 255.649 152.738 255.52 152.976C255.41 153.16 255.374 153.361 255.429 153.416C255.484 153.471 255.52 160.606 255.502 169.281L255.484 185.054L255.961 185.421C256.217 185.622 257.226 185.971 258.216 186.209C261.133 186.869 263.095 187.566 264.892 188.557C266.892 189.657 267.625 190.226 269.294 191.913C273.072 195.728 275.42 202.184 275.768 209.667C275.86 211.483 275.842 279.575 275.75 281.464C275.603 284.674 275.237 287.315 274.906 287.755C274.778 287.902 274.778 287.975 274.925 287.975C275.053 287.975 275.09 288.067 274.998 288.214C274.925 288.324 274.851 288.507 274.833 288.617C274.815 288.709 274.631 289.241 274.411 289.754C274.209 290.286 274.099 290.726 274.173 290.726C274.246 290.726 274.209 290.8 274.118 290.873C273.934 291.001 273.439 291.992 273.439 292.193C273.439 292.248 273.329 292.414 273.182 292.579C273.036 292.744 272.962 292.909 273.017 292.964C273.072 293.019 272.907 293.276 272.651 293.551C272.412 293.807 272.192 294.083 272.192 294.119C272.192 294.376 270.651 296.265 269.954 296.87C269.514 297.255 269.331 297.457 269.533 297.31C269.863 297.072 269.881 297.072 269.643 297.365C269.514 297.549 269.331 297.696 269.239 297.696C269.147 297.696 268.927 297.842 268.744 298.007C268.029 298.686 267.515 299.053 266.525 299.585C263.315 301.309 261.628 301.804 256.969 302.391C254.934 302.629 248.514 302.666 199.728 302.648C142.762 302.648 142.451 302.648 138.948 301.932C134.894 301.107 131.666 299.475 129.209 296.98C126.256 294.009 124.844 290.708 124.275 285.499C124.055 283.537 124 263.551 124 239.91C124 224.101 124.037 211.061 124.073 210.932C124.128 210.786 124.202 209.777 124.257 208.695C124.33 207.594 124.403 206.641 124.44 206.567C124.495 206.494 124.569 206.072 124.624 205.632C124.935 203.009 126.017 199.359 127.136 197.14C127.686 196.095 129.099 193.912 129.667 193.27C130.804 192.005 132.583 190.336 132.859 190.262C133.097 190.207 133.537 189.712 133.555 189.455C133.555 189.327 133.629 189.382 133.702 189.584C133.849 189.932 133.849 189.932 133.977 189.529C134.069 189.272 134.216 189.144 134.362 189.199C134.509 189.254 134.711 189.162 134.821 189.015C134.949 188.869 135.169 188.759 135.298 188.759C135.445 188.759 135.555 188.667 135.555 188.575C135.555 188.465 135.683 188.392 135.83 188.392C135.976 188.392 136.105 188.3 136.105 188.208C136.105 188.098 136.27 188.025 136.472 188.025C136.673 188.025 136.838 187.933 136.838 187.823C136.838 187.731 136.912 187.695 137.022 187.75C137.114 187.805 137.205 187.768 137.205 187.658C137.205 187.548 137.279 187.511 137.389 187.566C137.48 187.621 137.572 187.603 137.572 187.493C137.572 187.401 137.719 187.346 137.884 187.383C138.067 187.401 138.434 187.31 138.709 187.181C138.984 187.034 139.278 186.943 139.351 186.943C139.424 186.961 139.645 186.924 139.81 186.869C140.653 186.539 140.8 186.503 141.075 186.448C141.24 186.411 141.57 186.301 141.809 186.209C142.047 186.117 142.304 186.062 142.359 186.081C142.432 186.081 142.671 185.934 142.909 185.732C143.166 185.494 143.276 185.476 143.184 185.641C143.111 185.787 143.258 185.677 143.514 185.402L143.991 184.889V169.354C144.01 160.808 144.046 153.16 144.083 152.353C144.211 150.207 144.34 148.575 144.431 147.951C144.486 147.511 144.908 144.851 145.165 143.274C145.55 140.982 145.715 140.156 145.825 140.156C145.899 140.156 145.935 139.973 145.917 139.734C145.899 139.514 145.935 139.239 146.009 139.147C146.1 139.037 146.21 138.707 146.247 138.414C146.412 137.57 146.504 137.167 146.706 136.653C146.816 136.378 146.852 136.121 146.816 136.066C146.761 136.011 146.852 135.663 146.999 135.296C147.164 134.911 147.293 134.434 147.293 134.214C147.293 133.92 147.329 133.884 147.458 134.085C147.586 134.269 147.659 134.104 147.751 133.499C147.824 133.022 147.971 132.637 148.063 132.637C148.173 132.637 148.21 132.471 148.155 132.27C148.1 132.068 148.136 131.903 148.228 131.903C148.32 131.903 148.393 131.775 148.393 131.628C148.393 131.481 148.466 131.353 148.576 131.353C148.668 131.353 148.686 131.224 148.631 131.041C148.54 130.839 148.576 130.784 148.741 130.894C148.925 131.004 148.943 130.931 148.852 130.619C148.76 130.307 148.778 130.234 148.943 130.344C149.09 130.436 149.145 130.417 149.053 130.289C148.925 130.087 149.567 128.583 150.814 126.126C151.217 125.319 151.823 124.163 152.116 123.558C152.428 122.953 152.74 122.421 152.813 122.366C152.868 122.311 153.107 121.907 153.345 121.467C153.565 121.027 153.822 120.568 153.914 120.458C154.464 119.798 155.454 118.386 155.839 117.726C156.078 117.304 156.279 117.029 156.279 117.102C156.279 117.175 156.389 117.139 156.536 117.01C156.683 116.882 156.756 116.717 156.701 116.644C156.665 116.57 156.83 116.295 157.086 116.038C157.362 115.782 157.563 115.47 157.563 115.36C157.563 115.25 157.618 115.213 157.692 115.268C157.747 115.341 157.93 115.231 158.058 115.03C158.205 114.828 158.407 114.699 158.499 114.754C158.59 114.828 158.664 114.718 158.664 114.534C158.664 114.333 159.031 113.819 159.489 113.379C159.929 112.939 160.259 112.517 160.204 112.425C160.149 112.352 160.278 112.278 160.479 112.278C160.681 112.278 160.883 112.113 160.956 111.912C161.011 111.71 161.195 111.545 161.341 111.545C161.488 111.545 161.598 111.416 161.598 111.27C161.598 111.123 161.727 110.995 161.892 110.995C162.038 110.995 162.112 110.903 162.057 110.811C162.002 110.701 162.075 110.628 162.222 110.628C162.387 110.628 162.515 110.536 162.515 110.426C162.515 110.334 162.57 110.279 162.644 110.316C162.735 110.371 162.9 110.298 163.029 110.151C163.157 110.004 163.194 109.894 163.12 109.894C163.047 109.876 163.194 109.747 163.469 109.601C163.762 109.454 163.982 109.252 163.982 109.161C163.982 109.051 164.111 108.977 164.258 108.977C164.404 108.977 164.533 108.885 164.533 108.794C164.533 108.684 164.624 108.61 164.716 108.61C164.826 108.61 165.101 108.409 165.34 108.152C165.578 107.895 165.817 107.693 165.89 107.693C166.018 107.693 167.119 106.941 167.284 106.758C167.339 106.703 167.632 106.52 167.962 106.354C168.274 106.189 168.641 105.951 168.788 105.823C169.118 105.511 169.87 105.052 171.41 104.264C172.107 103.915 172.749 103.53 172.804 103.438C172.859 103.347 172.969 103.273 173.024 103.273C173.098 103.273 173.501 103.127 173.923 102.943C180.782 100.045 186.12 98.7431 193.584 98.1562C196.335 97.9361 202.828 97.9545 205.616 98.1746ZM196.904 120.44C195.015 120.623 194.336 120.715 192.502 121.009C190.851 121.284 187.312 122.237 186.743 122.568C186.431 122.733 185.386 123.136 185.294 123.118C185.111 123.044 180.287 125.832 179.939 126.236C179.884 126.291 179.517 126.566 179.132 126.878C178.728 127.171 178.233 127.575 178.031 127.776C177.811 127.978 177.389 128.345 177.096 128.565C176.784 128.803 176.674 128.95 176.821 128.877C176.968 128.803 176.839 128.987 176.527 129.28C176.032 129.72 174.73 131.243 173.648 132.655C173.465 132.893 173.153 133.389 172.951 133.737C172.749 134.085 172.438 134.617 172.236 134.929C171.887 135.479 170.897 137.24 170.86 137.405C170.842 137.46 170.677 137.827 170.493 138.23C170.31 138.634 170.163 139.019 170.182 139.092C170.2 139.184 170.145 139.239 170.072 139.239C169.98 139.239 169.907 139.349 169.888 139.459C169.851 139.991 169.356 141.073 169.21 140.945C169.136 140.853 169.118 140.89 169.191 141.018C169.265 141.147 169.063 141.935 168.769 142.797C168.476 143.641 168.274 144.393 168.329 144.448C168.384 144.503 168.329 144.668 168.201 144.833C168.072 144.998 168.017 145.163 168.072 145.237C168.146 145.292 168.109 145.457 167.999 145.603C167.834 145.787 167.852 145.842 168.036 145.842C168.201 145.86 168.182 145.933 167.944 146.117C167.742 146.264 167.669 146.392 167.797 146.392C167.944 146.392 167.962 146.52 167.816 146.887C167.706 147.181 167.596 147.566 167.559 147.768C167.412 148.666 167.064 151.491 167.027 151.986C167.027 152.279 166.935 152.591 166.825 152.664C166.697 152.756 166.715 152.811 166.825 152.811C166.935 152.811 167.027 152.976 167.027 153.178C167.027 153.38 166.954 153.545 166.862 153.545C166.77 153.545 166.789 153.655 166.899 153.802C167.064 154.003 167.064 154.077 166.88 154.168C166.697 154.26 166.697 154.297 166.862 154.388C167.21 154.535 167.155 154.829 166.77 154.829C166.587 154.829 166.532 154.884 166.66 154.975C166.954 155.159 166.99 159.047 166.715 159.047C166.569 159.047 166.55 159.12 166.715 159.285C166.862 159.469 166.935 163.229 166.954 172.252L167.009 184.98L167.632 185.347C168.256 185.714 168.659 185.714 199.123 185.787C221.425 185.842 229.99 185.806 230.082 185.659C230.155 185.549 230.486 185.457 230.816 185.457C232.081 185.457 232.008 186.54 232.026 168.859C232.044 160.074 232.044 152.866 232.026 152.811C232.008 152.756 231.971 152.224 231.934 151.619C231.861 150.427 231.751 149.473 231.458 147.768C231.348 147.162 231.237 146.465 231.219 146.209C231.182 145.952 231.109 145.622 231.036 145.457C230.962 145.292 230.889 144.961 230.852 144.705C230.834 144.466 230.761 144.191 230.706 144.099C230.651 143.989 230.541 143.586 230.467 143.182C230.32 142.412 229.605 140.266 229.165 139.294C229.018 138.982 228.908 138.671 228.908 138.579C228.908 137.974 225.46 132.05 224.378 130.802C223.718 130.032 220.765 127.134 219.995 126.492C217.977 124.787 212.695 122.091 210.696 121.742C210.568 121.724 210.182 121.614 209.834 121.485C208.77 121.137 204.827 120.532 202.828 120.422C201.782 120.348 200.92 120.293 200.902 120.275C200.829 120.22 198.041 120.33 196.904 120.44Z" fill="white"/>
</svg>
