<svg width="400" height="400" viewBox="0 0 400 400" fill="none" xmlns="http://www.w3.org/2000/svg">
<rect width="400" height="400" fill="#F56C2D"/>
<path d="M200 400C310.457 400 400 310.457 400 200C400 89.543 310.457 0 200 0C89.543 0 0 89.543 0 200C0 310.457 89.543 400 200 400Z" fill="#F56C2D"/>
<path d="M205.686 114.011C217.175 114.691 228.392 117.727 238.659 122.893C248.609 127.878 257.474 134.721 264.756 143.15C271.993 151.534 277.511 161.05 281.31 171.79C285.064 182.53 286.602 193.814 285.788 205.642C285.471 211.805 284.476 217.742 282.848 223.497C281.22 229.161 279.049 234.69 276.335 239.947C272.083 248.149 267.379 255.898 262.133 263.285C256.931 270.626 251.278 277.469 245.126 283.768C238.975 290.067 232.462 295.913 225.497 301.17C218.577 306.427 211.295 311.185 203.741 315.49L203.38 315.762C203.063 315.943 202.701 316.034 202.339 315.988C201.751 315.853 201.208 315.535 200.801 315.037C200.394 314.538 200.213 313.949 200.213 313.36C200.213 313.088 200.259 312.771 200.349 312.544C200.44 312.318 200.53 312.137 200.711 311.955C203.38 308.149 205.596 304.161 207.314 300.037C209.078 295.822 210.254 291.472 210.888 286.895C210.888 286.578 210.752 286.261 210.526 286.079C210.345 285.853 210.028 285.717 209.712 285.717C207.179 286.034 204.601 286.215 202.023 286.306C199.445 286.397 196.912 286.261 194.334 285.943C182.845 285.264 171.628 282.227 161.361 277.061C151.411 272.076 142.546 265.188 135.264 256.805C127.982 248.376 122.373 238.678 118.71 228.164C114.91 217.288 113.372 205.778 114.232 194.313C114.548 188.15 115.544 182.213 117.172 176.458C118.8 170.657 120.971 165.31 123.685 160.234C127.936 151.896 132.686 144.011 137.842 136.67C143.043 129.328 148.697 122.531 154.848 116.187C160.999 109.887 167.512 104.087 174.478 98.7848C181.443 93.5281 188.68 88.7245 196.233 84.4647L196.595 84.2381C196.912 84.0569 197.273 83.9662 197.635 84.0116C198.269 84.1475 198.766 84.51 199.173 84.9632C199.58 85.4617 199.761 86.0055 199.761 86.6399C199.761 86.9118 199.716 87.1837 199.625 87.4556C199.58 87.6822 199.445 87.8635 199.264 88.0448C196.64 91.7607 194.379 95.7939 192.615 100.008C190.851 104.178 189.72 108.573 189.087 113.15C189.087 113.467 189.223 113.739 189.449 113.966C189.675 114.193 189.992 114.329 190.263 114.329C192.796 114.011 195.329 113.83 197.952 113.739C200.62 113.603 203.199 113.739 205.686 114.011ZM197.907 233.602C206.817 234.373 215.637 231.382 222.24 225.355C229.206 219.192 232.96 211.442 233.593 202.153C234.362 193.18 231.377 184.298 225.316 177.636C219.526 170.793 211.114 166.715 202.158 166.398C193.203 165.627 184.338 168.618 177.689 174.645C170.859 180.446 166.743 188.875 166.472 197.847C165.703 206.82 168.688 215.657 174.613 222.364C180.719 229.388 188.454 233.149 197.907 233.602Z" fill="white"/>
</svg>
