<svg width="400" height="400" viewBox="0 0 400 400" fill="none" xmlns="http://www.w3.org/2000/svg">
<rect width="400" height="400" fill="#7289DA"/>
<path d="M273.636 310L256.455 289.478C290 280.448 303.091 257.463 303.091 257.463C260.545 297.687 144.364 299.328 99.3636 257.463C99.3636 257.463 110.818 278.806 145.182 289.478L126.364 310C69.0909 309.179 47 270.597 47 270.597C47 185.224 84.6364 117.09 84.6364 117.09C123.091 90 158.273 90 158.273 90L160.727 93.2836C113.273 106.418 92.8182 127.761 92.8182 127.761C148.455 90 263 93.2836 308 127.761C308.818 126.94 281 104.776 237.636 93.2836L241.727 90C241.727 90 276.909 90 315.364 117.09C315.364 117.09 353 185.224 353 270.597C353 270.597 330.909 309.179 273.636 310Z" fill="white"/>
<path d="M151 246C165.912 246 178 233.24 178 217.5C178 201.76 165.912 189 151 189C136.088 189 124 201.76 124 217.5C124 233.24 136.088 246 151 246Z" fill="#7289DA"/>
<path d="M246 246C260.912 246 273 233.24 273 217.5C273 201.76 260.912 189 246 189C231.088 189 219 201.76 219 217.5C219 233.24 231.088 246 246 246Z" fill="#7289DA"/>
</svg>
