<svg width="400" height="400" viewBox="0 0 400 400" fill="none" xmlns="http://www.w3.org/2000/svg">
<rect width="400" height="400" fill="#2787F5"/>
<path d="M151 246C165.912 246 178 233.24 178 217.5C178 201.76 165.912 189 151 189C136.088 189 124 201.76 124 217.5C124 233.24 136.088 246 151 246Z" fill="#2787F5"/>
<path d="M246 246C260.912 246 273 233.24 273 217.5C273 201.76 260.912 189 246 189C231.088 189 219 201.76 219 217.5C219 233.24 231.088 246 246 246Z" fill="#2787F5"/>
<path fill-rule="evenodd" clip-rule="evenodd" d="M96.8975 129H64.9527C55.8255 129 54 133.411 54 138.273C54 146.958 64.8301 190.033 104.427 247.004C130.824 285.91 168.016 307 201.86 307C222.165 307 224.678 302.316 224.678 294.248V264.842C224.678 255.474 226.601 253.604 233.031 253.604C237.769 253.604 245.891 256.036 264.844 274.794C286.504 297.026 290.075 307 302.257 307H334.202C343.33 307 347.893 302.316 345.261 293.072C342.38 283.859 332.039 270.491 318.316 254.646C310.87 245.614 299.702 235.888 296.318 231.024C291.58 224.771 292.933 221.992 296.318 216.435C296.318 216.435 335.238 160.158 339.299 141.053C341.33 134.105 339.299 129 329.639 129H297.694C289.572 129 285.827 133.411 283.796 138.273C283.796 138.273 267.551 178.917 244.538 205.318C237.092 212.96 233.708 215.392 229.646 215.392C227.616 215.392 224.677 212.96 224.677 206.013V141.053C224.677 132.716 222.32 129 215.55 129H165.35C160.275 129 157.222 132.869 157.222 136.537C157.222 144.44 168.729 146.263 169.915 168.495V216.782C169.915 227.368 168.051 229.288 163.991 229.288C153.161 229.288 126.818 188.462 111.195 141.748C108.133 132.668 105.062 129 96.8975 129Z" fill="white"/>
</svg>
