<svg width="400" height="400" viewBox="0 0 400 400" fill="none" xmlns="http://www.w3.org/2000/svg">
<rect width="400" height="400" fill="#273B7D"/>
<path d="M151.393 275.637H111.155V229.842C111.155 220.082 115.1 214.827 123.936 213.776H151.55C155.896 213.433 160.268 213.997 164.362 215.428C168.455 216.858 172.172 219.121 175.251 222.059C178.331 224.997 180.7 228.538 182.194 232.437C183.687 236.335 184.269 240.497 183.898 244.632C183.898 264.151 171.511 275.787 151.55 275.787L151.393 275.637ZM111.076 151.84V139.828C111.076 129.318 115.81 124.213 126.067 123.612H146.738C164.411 123.612 175.141 133.672 175.141 150.639C175.141 163.401 167.882 178.416 147.527 178.416H111.234L111.076 151.84ZM202.913 197.635L195.654 193.731L201.966 188.476C209.382 182.47 221.69 168.807 221.69 145.309C221.69 109.273 192.34 86 146.974 86H89.3793C82.8756 86.2126 76.7094 88.8066 72.1671 93.2407C67.6248 97.6748 65.0572 103.607 65 109.798V314H148C198.494 314 231 287.874 231 247.334C231 225.563 220.507 206.794 202.755 197.41" fill="white"/>
<path d="M254 275.5C254 254.204 272.26 237 294.888 237C317.516 237 336 254.204 336 275.5C336 296.796 317.628 314 294.888 314C272.148 314 254 296.796 254 275.5Z" fill="#499FDD"/>
</svg>
