<svg width="400" height="400" viewBox="0 0 400 400" fill="none" xmlns="http://www.w3.org/2000/svg">
<rect width="400" height="400" fill="#0288D1"/>
<path d="M286.607 191.868C286.607 191.868 306.545 192.863 306.545 181.141C306.545 165.82 280 152.015 280 152.015C280 152.015 284.168 143.182 286.749 138.257C289.354 133.331 296.647 114.079 297.31 109.675C298.139 104.157 296.884 102.429 296.884 102.429C295.084 114.269 275.809 148.344 274.269 149.505C255.467 140.696 229.656 138.233 229.656 138.233C229.656 138.233 204.366 85 180.591 85C157.005 85 157.124 130.584 157.124 130.584C157.124 130.584 150.47 117.655 142.111 117.655C129.892 117.655 125.866 136.149 125.866 156.206C101.736 156.206 81.4185 161.605 79.6188 162.126C77.7955 162.647 72.0886 166.791 74.6697 166.27C79.9504 164.589 104.767 160.753 126.482 162.623C127.666 181.686 138.795 206.503 138.795 206.503C138.795 206.503 114.95 241.076 114.95 265.75C114.95 272.262 117.365 285.05 134.509 285.05C148.86 285.05 165.365 275.507 168.396 273.754C165.743 277.543 163.778 284.718 163.778 288.033C163.778 289.573 164.394 292.746 166.927 295.185C170.977 291.159 174.955 287.157 179.88 282.255C174.576 281.285 173.866 277.354 173.866 276.335C173.866 272.783 176.636 268.568 176.636 268.568C176.636 268.568 189.542 259.854 190.347 258.93L199.867 276.691C199.867 276.691 190.11 282.469 182.462 282.469C181.491 282.469 180.638 282.397 179.88 282.255C174.955 287.157 170.977 291.159 166.927 295.185C168.822 297.008 171.758 298.405 176.447 298.405C190.655 298.405 206.544 287.512 206.544 287.512C206.544 287.512 221.534 312.424 234.321 323.838C237.778 326.916 241.094 327.484 241.094 327.484C241.094 327.484 228.354 315.218 211.588 283.653C227.17 274.015 243.391 251.305 243.391 251.305C243.391 251.305 245.309 251.353 260.109 251.353C283.292 251.353 316.231 246.475 316.231 228.052C316.231 209.036 286.607 191.868 286.607 191.868ZM289.212 180.407C289.212 187.132 282.794 187.061 282.794 187.061L277.94 187.369L263.116 180.241C263.116 180.241 271.783 166.886 273.82 163.144C275.359 164.044 289.212 172.711 289.212 180.407ZM149.002 132.668C152.459 132.668 155.869 136.883 157.266 140.459C157.266 142.803 158.497 156.585 158.497 156.585L138.488 155.851C138.488 137.783 145.544 132.668 149.002 132.668ZM146.941 258.007C136.001 258.007 133.752 251.921 133.752 246.427C133.752 233.995 143.65 216.638 143.65 216.638C143.65 216.638 154.756 240.01 174.15 249.861C164.536 255.521 156.579 258.007 146.941 258.007ZM206.355 272.783C201.69 264.614 198.256 256.089 198.256 256.089C198.256 256.089 217.413 257.344 227.714 246.688C221.297 249.577 211.067 253.224 199.156 252.111L250.85 197.883C249.784 196.604 244.172 192.674 242.799 192.01C235.387 200.938 206.568 231.769 179.88 247.019C146.089 228.596 138.985 174.345 138.275 163.097L156.721 164.873C156.721 164.873 149.783 177.163 149.783 186.209C149.783 195.255 150.872 195.752 150.872 195.752C150.872 195.752 150.636 179.957 160.368 167.786C167.804 207.284 175.523 227.531 181.562 239.608C184.64 238.329 190.371 235.795 190.371 235.795C190.371 235.795 173.321 186.635 174.268 153.365C179.644 150.499 186.842 147.587 195.036 146.071C194.846 143.94 194.396 141.809 193.473 139.701C187.269 141.146 180.615 143.443 174.387 147.113C174.931 128.571 181.159 111.806 192.194 111.806C203.087 111.806 218.645 137.523 218.645 137.523C218.645 137.523 207.16 136.504 193.473 139.677C194.396 141.809 194.846 143.94 195.036 146.071C198.635 145.408 202.424 144.982 206.355 144.982C240.36 144.982 267.686 159.616 267.686 159.616L257.007 174.558C257.007 174.558 247.464 157.295 234.013 154.217C241.117 159.498 249.05 166.507 253.194 176.571C225.015 165.536 191.01 159.734 180.094 158.456C179.146 162.481 179.265 168.236 179.265 168.236C179.265 168.236 224.873 176.642 258.049 195.634C257.835 237.192 212.606 269.066 206.355 272.783ZM249.547 241.739C249.547 241.739 263.732 223.15 263.495 198.546C263.495 198.546 286.346 212.707 286.346 226.536C286.37 241.976 249.547 241.739 249.547 241.739Z" fill="white"/>
<path d="M163.778 288.033C163.778 284.742 165.744 277.543 168.372 273.754C172.848 271.505 176.636 268.568 176.636 268.568C176.636 268.568 173.842 272.783 173.842 276.335C173.842 277.354 174.553 281.285 179.857 282.255C180.615 282.398 181.467 282.469 182.438 282.469C190.11 282.469 199.843 276.691 199.843 276.691C168.538 304.752 163.778 288.436 163.778 288.033ZM168.846 238.968L168.467 239.134L168.017 239.418C166.241 240.46 164.583 241.312 162.949 242.07C166.312 245.054 170.03 247.777 174.15 249.861C175.926 249.009 178.626 247.682 179.881 247.043C175.831 244.817 172.161 242.07 168.846 238.968ZM137.067 255C134.533 252.726 133.752 249.506 133.752 246.427C133.752 233.995 143.65 216.638 143.65 216.638L138.796 206.526C138.796 206.526 114.263 243.42 136.996 255.165C137.043 255.023 137.02 255.142 137.067 255ZM285.968 229.188C281.989 241.952 249.548 241.739 249.548 241.739L243.391 251.305C243.391 251.305 245.214 251.353 257.765 251.377C257.765 251.377 283.481 249.269 285.968 229.188ZM257.267 208.942C257.267 208.942 259.351 210.292 262.122 212.423C262.998 208.089 263.542 203.448 263.495 198.546C262.287 197.812 259.209 196.178 258.072 195.657C258.049 200.062 257.433 204.324 256.486 208.492C256.794 208.681 257.078 208.847 257.267 208.942ZM289.212 180.407C289.212 187.132 282.794 187.061 282.794 187.061L277.94 187.369L286.607 191.845C314.597 190.708 293.072 168.922 273.82 163.144C275.359 164.044 289.212 172.711 289.212 180.407ZM188.784 112.422C189.874 112.066 190.987 111.83 192.194 111.83C203.087 111.83 218.645 137.546 218.645 137.546L229.656 138.233C229.656 138.233 227.122 132.929 222.931 125.682C217.177 116.352 199.44 107.07 188.784 112.422ZM147.889 122.509C137.091 121.373 137.422 152.441 138.488 155.851C138.488 137.807 145.544 132.668 149.002 132.668C152.459 132.668 155.869 136.883 157.266 140.459C157.1 135.131 157.124 130.584 157.124 130.584C157.124 130.584 152.814 123.457 147.889 122.509ZM186.511 147.61C186.558 145.503 186.772 143.514 187.008 141.548C182.77 142.922 178.483 144.698 174.387 147.113C174.268 149.647 174.41 150.807 174.268 153.388C177.655 151.565 181.846 149.789 186.487 148.297C186.487 148.084 186.487 147.871 186.511 147.61ZM206.237 272.783C201.572 264.614 198.114 256.089 198.114 256.089C198.114 256.089 217.295 257.344 227.596 246.688C221.155 249.577 210.949 253.224 199.014 252.111C196.504 254.739 193.473 256.752 190.205 258.93L199.725 276.691C199.725 276.691 206.971 272.333 206.237 272.783ZM211.446 283.653C212.914 282.753 206.402 287.512 206.402 287.512C206.402 287.512 221.368 312.424 234.179 323.838C237.636 326.916 240.928 327.484 240.928 327.484C240.928 327.484 228.212 315.218 211.446 283.653ZM296.884 102.405C295.084 114.245 275.809 148.344 274.293 149.505C272.399 148.628 280.024 151.991 280.024 151.991C280.024 151.991 284.168 143.182 286.773 138.233C289.354 133.307 296.671 114.079 297.31 109.675C298.139 104.157 296.884 102.405 296.884 102.405ZM267.71 159.64L257.007 174.582C257.007 174.582 247.464 157.319 234.013 154.241C239.436 158.29 245.332 163.334 249.666 169.964C249.666 169.941 249.666 169.893 249.666 169.87C249.666 169.893 249.666 169.941 249.666 169.964C251.016 172.024 252.223 174.203 253.194 176.595C258.759 178.702 263.59 180.431 263.116 180.241C263.116 180.241 271.783 166.886 273.82 163.144C274.388 163.476 267.71 159.64 267.71 159.64ZM158.497 156.609L138.488 155.851C138.156 157.864 138.275 161.037 138.275 163.097L156.721 164.873C156.721 164.873 149.807 177.163 149.807 186.233C149.807 195.278 150.872 195.752 150.872 195.752C150.872 195.752 150.683 181.733 158.805 169.917C158.782 169.893 158.758 169.893 158.758 169.87C158.782 169.893 158.805 169.917 158.805 169.917C159.303 169.207 159.824 168.496 160.392 167.786C159.113 160.658 158.497 156.609 158.497 156.609ZM125.866 156.206C101.736 156.206 81.4187 161.605 79.5953 162.126C77.7719 162.647 72.065 166.791 74.6698 166.27C79.9505 164.589 104.767 160.753 126.482 162.647C126.032 158.622 125.866 156.206 125.866 156.206Z" fill="white"/>
</svg>
