<svg width="400" height="400" viewBox="0 0 400 400" fill="none" xmlns="http://www.w3.org/2000/svg">
<rect width="400" height="400" fill="#2D8CFF"/>
<path d="M199.5 387C303.053 387 387 303.053 387 199.5C387 95.9469 303.053 12 199.5 12C95.9469 12 12 95.9469 12 199.5C12 303.053 95.9469 387 199.5 387Z" fill="#2D8CFF"/>
<path fill-rule="evenodd" clip-rule="evenodd" d="M308.865 136.222L255.983 175.051V224.098L308.865 262.928C312.607 265.804 317 266.693 317 258.841V140.309C317 133.307 313.474 132.427 308.865 136.222ZM77 228.977V140.553C77 136.936 79.94 134 83.5667 134H211.707C231.659 134 247.848 150.128 247.848 170.024V258.447C247.848 262.065 244.908 265 241.281 265H113.141C93.1887 265 77 248.872 77 228.977Z" fill="white"/>
</svg>
